<svg width="255" height="96" viewBox="0 0 255 96" fill="none" xmlns="http://www.w3.org/2000/svg">
<rect width="255" height="96" fill="white"/>
<path fill-rule="evenodd" clip-rule="evenodd" d="M157.323 70.6156C157.988 67.7014 157.331 64.9921 156.73 63.6946L158.066 63.0776C158.782 64.6227 159.507 67.6638 158.758 70.9419C158.385 72.5764 157.645 74.2697 156.357 75.8572L155.213 74.9327C156.347 73.5342 156.995 72.05 157.323 70.6156Z" fill="#002550"/>
<path fill-rule="evenodd" clip-rule="evenodd" d="M160.839 70.4646C161.504 67.5505 160.847 64.8411 160.246 63.5436L161.583 62.9267C162.299 64.4718 163.023 67.5128 162.275 70.791C161.901 72.4287 161.313 73.7748 160.028 75.3598L158.883 74.4353C160.02 73.0345 160.512 71.8958 160.839 70.4646Z" fill="#002550"/>
<path fill-rule="evenodd" clip-rule="evenodd" d="M83.788 51.415L71.6404 22.8666L72.5441 22.4837L84.6918 51.0321L83.788 51.415ZM78.2536 48.5306L68.096 23.8722L69.004 23.4997L79.1617 48.158L78.2536 48.5306ZM88.4271 53.4997L76.2143 25.0878L77.1166 24.7016L89.3294 53.1135L88.4271 53.4997ZM93.4855 56.3218L80.7907 27.1573L81.6912 26.7669L94.3861 55.9315L93.4855 56.3218ZM74.0315 46.8538L66.4081 29.1892L67.3099 28.8017L74.9333 46.4662L74.0315 46.8538ZM98.9508 58.9439L85.3042 29.8132L86.1936 29.3982L99.8403 58.529L98.9508 58.9439ZM103.79 61.0177L90.8729 32.5031L91.7675 32.0995L104.684 60.6141L103.79 61.0177ZM69.0478 44.3103L64.5389 34.3061L65.4343 33.9042L69.9432 43.9085L69.0478 44.3103ZM108.841 63.4995L96.2637 35.7566L97.1582 35.3527L109.736 63.0957L108.841 63.4995ZM114.433 65.7749L101.773 38.86L102.662 38.4437L115.322 65.3586L114.433 65.7749ZM119.593 66.2425L107.081 42.2714L107.952 41.8188L120.463 65.7899L119.593 66.2425Z" fill="#EEEEEE"/>
<path fill-rule="evenodd" clip-rule="evenodd" d="M76.8387 25.4285L67.4184 29.7191L67.0108 28.8279L76.4311 24.5373L76.8387 25.4285ZM82.889 28.0984L64.4932 36.4924L64.085 35.6015L82.4808 27.2075L82.889 28.0984ZM88.8568 31.2184L64.5945 42.2265L64.1882 41.3347L88.4505 30.3266L88.8568 31.2184ZM93.6548 34.0005L69.3926 45.0085L68.9863 44.1167L93.2485 33.1087L93.6548 34.0005ZM98.2768 36.7843L75.0845 47.5043L74.6719 46.6154L97.8642 35.8954L98.2768 36.7843ZM103.42 39.2044L79.5099 49.8477L79.11 48.953L103.02 38.3098L103.42 39.2044ZM107.957 41.988L85.4763 52.4265L85.0621 51.5383L107.543 41.0998L107.957 41.988ZM112.583 45.0408L91.2605 55.1001L90.841 54.2145L112.164 44.1551L112.583 45.0408ZM115.971 49.1927L97.4905 57.8571L97.0731 56.9704L115.554 48.3061L115.971 49.1927ZM118.652 53.624L103.284 60.9782L102.859 60.0949L118.227 52.7407L118.652 53.624ZM120.713 57.4299L109.089 63.7314L108.62 62.8706L120.245 56.5691L120.713 57.4299ZM122.571 61.0705L114.408 65.5179L113.937 64.658L122.1 60.2107L122.571 61.0705Z" fill="#EEEEEE"/>
<path d="M96.7773 26.9524L62.0634 9.13804L48.2417 7.02356L35.5825 6.1333C36.1029 7.104 37.4176 9.22663 38.0154 10.678C38.6132 12.1293 38.3919 14.0284 38.1848 15.7802L70.146 21.3892L96.9204 34.9752L101.414 37.5171L96.7773 26.9524Z" fill="#FFED00"/>
<path d="M104.016 38.8298L99.2129 28.1812L103.858 30.8017L108.839 41.7622L104.016 38.8298Z" fill="#FFED00"/>
<path d="M110.69 42.8439L105.708 31.0962L106.927 31.8626L111.688 43.4055L110.69 42.8439Z" fill="#FFED00"/>
<path fill-rule="evenodd" clip-rule="evenodd" d="M126.883 74.2482C135.72 66.834 136.128 55.7163 135.422 50.3212L136.882 50.1307C137.615 55.724 137.237 67.4811 127.831 75.3729L126.883 74.2482Z" fill="#8C8C8C"/>
<path fill-rule="evenodd" clip-rule="evenodd" d="M120.551 75.1222C132.607 65.8716 132.827 52.0765 131.47 46.6741L132.898 46.3168C134.35 52.0994 134.106 66.5752 121.449 76.287L120.551 75.1222Z" fill="#8C8C8C"/>
<path fill-rule="evenodd" clip-rule="evenodd" d="M93.299 34.034C84.5067 29.224 74.7393 24.1046 69.3918 21.8282L69.7771 20.9272C75.1759 23.2253 84.9843 28.3681 93.771 33.175C98.1683 35.5806 102.316 37.9059 105.538 39.7548C108.747 41.5959 111.067 42.9817 111.783 43.4989C112.265 43.8473 112.808 44.4099 113.381 45.1014C113.959 45.799 114.586 46.652 115.236 47.602C116.534 49.5024 117.932 51.8112 119.21 54.0853C120.488 56.3595 121.65 58.6073 122.475 60.3874C122.886 61.2764 123.218 62.0565 123.437 62.6687C123.547 62.9741 123.632 63.2473 123.684 63.4765C123.732 63.684 123.772 63.9278 123.73 64.136C123.532 65.1086 122.71 66.2434 120.808 66.6076C118.949 66.9636 116.07 66.5856 111.663 64.6918C107.738 63.0045 96.2319 57.5346 84.9321 52.1625C76.0875 47.9576 67.369 43.8127 62.5102 41.5886L62.9196 40.6982C67.8133 42.9382 76.5547 47.0942 85.4073 51.3031C96.6802 56.6627 108.134 62.1081 112.052 63.7921C116.392 65.6574 119.051 65.9465 120.623 65.6455C122.152 65.3526 122.653 64.5062 122.768 63.9411C122.767 63.9451 122.767 63.9442 122.766 63.9376C122.765 63.9176 122.762 63.8453 122.728 63.6961C122.687 63.5191 122.616 63.286 122.513 62.9988C122.307 62.4257 121.989 61.6753 121.583 60.7985C120.772 59.0469 119.623 56.8223 118.354 54.5645C117.085 52.3065 115.702 50.0237 114.424 48.1539C113.785 47.2188 113.176 46.3922 112.624 45.7256C112.067 45.0528 111.587 44.5669 111.207 44.2923C110.543 43.8128 108.278 42.4572 105.049 40.6041C101.833 38.7588 97.6911 36.4369 93.299 34.034Z" fill="#EEEEEE"/>
<path fill-rule="evenodd" clip-rule="evenodd" d="M62.7518 12.1711C61.5697 10.9469 60.017 9.93869 58.9401 9.3798L59.6197 8.07614C60.7917 8.68437 62.4883 9.78022 63.8123 11.1516C65.1076 12.4931 66.222 14.287 65.7721 16.2343C65.0521 19.3511 61.9382 32.4229 57.6749 40.4502L57.6643 40.4701L57.6526 40.4892C54.8748 45.0261 50.5607 48.2935 46.1996 49.081L45.9375 47.6351C49.7886 46.9396 53.7722 43.9978 56.3842 39.7423C60.5367 31.9118 63.6101 19.0515 64.3371 15.9044C64.6111 14.7184 63.9625 13.4251 62.7518 12.1711ZM66.3191 12.4724C66.1184 12.2742 65.9226 12.0809 65.7392 11.8803L66.8271 10.8899C66.9469 11.0209 67.0961 11.167 67.2644 11.3319C67.9588 12.0122 68.9796 13.0123 69.6112 14.5899C70.4112 16.5885 70.6033 19.4542 69.2991 23.8888C68.0823 28.0263 66.108 33.1556 64.6421 36.9642C64.1512 38.2394 63.7174 39.3665 63.3881 40.2588C61.5053 45.3598 57.4023 49.5815 52.3453 51.6404L51.7891 50.2799C56.4656 48.3759 60.2673 44.4622 62.0062 39.7511C62.3476 38.8262 62.7912 37.6734 63.2896 36.3787C64.7532 32.5759 66.6881 27.5486 67.8861 23.4751C69.1335 19.2335 68.881 16.7275 68.2436 15.1351C67.7392 13.875 67.0007 13.1456 66.3191 12.4724Z" fill="#8C8C8C"/>
<mask id="path-12-inside-1_5596_109540" fill="white">
<path fill-rule="evenodd" clip-rule="evenodd" d="M122.493 37.1332C123.193 36.4078 124.164 35.7227 125.308 35.3355C126.175 35.0418 127.142 34.9197 128.167 35.0817C127.482 34.9625 126.438 34.5164 125.704 33.7032C125.415 33.3829 125.174 33.0057 125.023 32.5692C124.867 32.1217 124.805 31.6119 124.88 31.037C124.509 31.2312 123.991 31.3503 123.377 31.4105C120.702 31.6727 116.188 30.821 113.874 30.1827L110.975 34.3839L120.97 39.4684L122.493 37.1332ZM120.459 37.5587L121.335 36.2148L121.432 36.1142C122.132 35.3889 123.081 34.6755 124.211 34.1842C123.942 33.7963 123.719 33.3569 123.571 32.8681C123.303 32.8958 123.034 32.912 122.771 32.9207C121.771 32.9539 120.646 32.8809 119.532 32.7537C117.764 32.5517 115.931 32.2024 114.504 31.861L113.141 33.8362L120.459 37.5587Z"/>
</mask>
<path d="M122.493 37.1332L121.054 35.7447L120.922 35.8815L120.818 36.0407L122.493 37.1332ZM125.308 35.3355L125.949 37.23L125.949 37.23L125.308 35.3355ZM128.167 35.0817L127.854 37.0571L128.51 33.1113L128.167 35.0817ZM125.704 33.7032L127.189 32.3633L127.189 32.3633L125.704 33.7032ZM125.023 32.5692L123.134 33.2261L123.134 33.2261L125.023 32.5692ZM124.88 31.037L126.863 31.2976L127.365 27.4819L123.954 29.2645L124.88 31.037ZM123.377 31.4105L123.572 33.401L123.572 33.401L123.377 31.4105ZM113.874 30.1827L114.406 28.2548L113.036 27.8767L112.228 29.0468L113.874 30.1827ZM110.975 34.3839L109.329 33.248L108.031 35.1299L110.069 36.1665L110.975 34.3839ZM120.97 39.4684L120.064 41.251L121.664 42.0653L122.646 40.5609L120.97 39.4684ZM120.459 37.5587L119.552 39.3413L121.153 40.1556L122.134 38.6513L120.459 37.5587ZM121.335 36.2148L119.896 34.8262L119.764 34.963L119.66 35.1222L121.335 36.2148ZM121.432 36.1142L119.993 34.7256L119.993 34.7257L121.432 36.1142ZM124.211 34.1842L125.009 36.0185L127.246 35.0463L125.854 33.043L124.211 34.1842ZM123.571 32.8681L125.486 32.2898L125.009 30.709L123.366 30.8786L123.571 32.8681ZM122.771 32.9207L122.838 34.9196L122.838 34.9196L122.771 32.9207ZM119.532 32.7537L119.759 30.7666L119.759 30.7666L119.532 32.7537ZM114.504 31.861L114.97 29.9159L113.637 29.597L112.858 30.7251L114.504 31.861ZM113.141 33.8362L111.495 32.7003L110.197 34.5822L112.234 35.6188L113.141 33.8362ZM123.933 38.5218C124.442 37.9943 125.147 37.5013 125.949 37.23L124.666 33.4411C123.18 33.9441 121.945 34.8214 121.054 35.7447L123.933 38.5218ZM125.949 37.23C126.545 37.0281 127.185 36.9512 127.854 37.0571L128.479 33.1062C127.1 32.8882 125.805 33.0555 124.666 33.4411L125.949 37.23ZM128.51 33.1113C128.39 33.0904 128.152 33.0216 127.877 32.8785C127.607 32.7382 127.367 32.56 127.189 32.3633L124.219 35.0431C125.298 36.238 126.77 36.8686 127.824 37.0521L128.51 33.1113ZM127.189 32.3633C127.053 32.2129 126.964 32.0625 126.912 31.9122L123.134 33.2261C123.385 33.949 123.777 34.553 124.219 35.0431L127.189 32.3633ZM126.912 31.9122C126.86 31.7651 126.828 31.5698 126.863 31.2976L122.898 30.7765C122.782 31.6539 122.873 32.4783 123.134 33.2261L126.912 31.9122ZM123.954 29.2645C123.955 29.2642 123.939 29.2722 123.903 29.2853C123.866 29.2982 123.815 29.3141 123.746 29.3308C123.606 29.3649 123.42 29.3967 123.182 29.4201L123.572 33.401C124.287 33.3309 125.102 33.178 125.807 32.8095L123.954 29.2645ZM123.182 29.4201C122.094 29.5267 120.492 29.4094 118.784 29.1559C117.107 28.9072 115.48 28.551 114.406 28.2548L113.343 32.1107C114.582 32.4527 116.369 32.8415 118.197 33.1126C119.992 33.379 121.985 33.5565 123.572 33.401L123.182 29.4201ZM122.646 40.5609L124.169 38.2258L120.818 36.0407L119.295 38.3758L122.646 40.5609ZM119.993 34.7257L119.896 34.8262L122.775 37.6033L122.872 37.5027L119.993 34.7257ZM123.414 32.35C122.018 32.9568 120.856 33.8313 119.993 34.7256L122.872 37.5027C123.408 36.9465 124.144 36.3942 125.009 36.0185L123.414 32.35ZM121.657 33.4463C121.87 34.1525 122.19 34.7801 122.569 35.3255L125.854 33.043C125.694 32.8125 125.568 32.5614 125.486 32.2898L121.657 33.4463ZM122.838 34.9196C123.136 34.9097 123.453 34.891 123.777 34.8575L123.366 30.8786C123.153 30.9007 122.931 30.9143 122.705 30.9218L122.838 34.9196ZM119.305 34.7407C120.473 34.8742 121.704 34.9572 122.838 34.9196L122.705 30.9218C121.838 30.9506 120.818 30.8876 119.759 30.7666L119.305 34.7407ZM114.039 33.8061C115.531 34.1632 117.444 34.5282 119.305 34.7407L119.759 30.7666C118.083 30.5752 116.331 30.2416 114.97 29.9159L114.039 33.8061ZM114.787 34.9721L116.15 32.9969L112.858 30.7251L111.495 32.7003L114.787 34.9721ZM121.366 35.7761L114.048 32.0536L112.234 35.6188L119.552 39.3413L121.366 35.7761ZM112.228 29.0468L109.329 33.248L112.621 35.5198L115.521 31.3187L112.228 29.0468ZM110.069 36.1665L120.064 41.251L121.877 37.6858L111.882 32.6013L110.069 36.1665ZM119.66 35.1222L118.784 36.4661L122.134 38.6513L123.011 37.3073L119.66 35.1222Z" fill="#8C8C8C" mask="url(#path-12-inside-1_5596_109540)"/>
<path fill-rule="evenodd" clip-rule="evenodd" d="M139.658 57.3425L141.846 58.101C143.82 58.7854 147.003 59.8489 150.121 60.8109C153.274 61.7833 156.255 62.6185 157.882 62.8845C158.069 62.9151 158.5 62.8886 159.259 62.6343C159.983 62.3918 160.859 61.9931 161.865 61.4568C163.876 60.3849 166.249 58.8485 168.707 57.1787C169.931 56.3468 171.166 55.4894 172.377 54.6476L172.392 54.6378C173.596 53.8011 174.779 52.979 175.896 52.2219C178.107 50.7233 180.162 49.4046 181.668 48.7267C183.264 48.0088 185.845 47.5049 188.827 47.144C191.863 46.7767 195.487 46.5398 199.279 46.4244C206.855 46.1937 215.21 46.4449 221.045 47.144C227.502 47.9176 231.391 52.4244 233.687 57.5713C235.974 62.7015 236.806 68.7134 237.086 73.1219C237.366 77.5475 237.073 82.6037 235.093 86.6361C234.09 88.6779 232.643 90.4802 230.609 91.7797C228.574 93.0797 226.039 93.8202 222.95 93.8754C216.646 93.988 212.136 90.8835 209.091 86.849C206.077 82.8558 204.446 77.9023 203.76 74.0123C202.631 67.6031 205.545 63.8738 207.265 61.6725C207.334 61.5849 207.401 61.4996 207.465 61.4167C208.179 60.4972 208.591 59.5878 208.823 58.9134C208.936 58.5848 209.005 58.316 209.045 58.1349L208.609 56.5113C208.513 56.5097 208.418 56.5083 208.322 56.507C205.086 56.4657 201.7 56.6221 198.388 56.7751C196.155 56.8783 193.957 56.9798 191.862 57.0181C187.075 57.391 182.949 59.363 179.11 62.0475C176.241 64.0538 173.618 66.3903 171.003 68.7204C170.068 69.5531 169.134 70.385 168.19 71.2007C162.15 76.4216 154.18 76.6883 150.887 76.1758L150.817 76.1649L133.923 71.8488L135.433 70.0591C135.734 69.7026 136.044 69.398 136.359 69.0884C137.237 68.2253 138.155 67.3225 139.032 65.1437C139.658 63.5905 139.893 62.5491 139.97 61.7684C140.044 61.0301 139.985 60.4705 139.911 59.7669C139.907 59.7256 139.902 59.6838 139.898 59.6414L139.658 57.3425ZM191.792 55.5496C193.804 55.5137 195.987 55.4136 198.228 55.3108C205.344 54.9844 213.05 54.6309 217.781 56.2184C218.273 56.3832 218.732 56.569 219.155 56.778C219.155 56.778 219.155 56.778 219.155 56.778C219.794 57.0933 220.351 57.4613 220.811 57.8896C220.861 57.9313 220.911 57.9747 220.962 58.02C223.125 59.9364 226.78 65.0486 226.88 70.605C226.891 71.2523 226.909 71.9059 226.927 72.5587C227.109 79.0761 227.288 85.5036 220.808 84.5419C213.679 83.4839 209.569 74.4701 212.241 69.2861C214.892 66.0234 216.311 63.2164 216.879 61.9883C216.977 61.7743 217.076 61.5607 217.173 61.3497C217.523 60.5887 217.858 59.8617 218.144 59.272C218.365 58.8167 218.557 58.4433 218.706 58.1994C218.786 58.0666 218.854 57.9722 218.906 57.9237C218.906 57.9237 218.544 57.8453 217.412 57.6455C217.386 57.6409 217.36 57.6363 217.333 57.6315C216.8 57.5377 216.104 57.4184 215.206 57.2694C213.824 57.0401 212.623 56.9053 211.743 56.827C210.771 56.7406 210.19 56.723 210.19 56.723L210.553 58.0729C210.553 58.0729 210.547 58.1211 210.531 58.2105C210.442 58.7103 210.043 60.4962 208.629 62.3169C208.567 62.3973 208.502 62.4793 208.437 62.5631C206.757 64.7147 204.196 67.9953 205.211 73.7577C206.529 81.241 211.472 92.6106 222.923 92.4061C234.375 92.2016 236.166 81.8971 235.616 73.2147C235.066 64.5324 232.348 49.9784 220.869 48.603C209.39 47.2277 187.76 47.5978 182.274 50.0663C180.218 50.9912 176.858 53.3259 173.229 55.8467C167.172 60.0541 160.369 64.7801 157.644 64.3346C154.555 63.8297 147.279 61.4975 142.896 60.0141C142.332 59.8231 141.816 59.6462 141.362 59.4891C141.368 59.5375 141.373 59.5859 141.378 59.6342C141.427 60.0974 141.476 60.5609 141.476 61.0832C141.478 62.1794 141.267 63.5349 140.399 65.6915C139.554 67.7892 138.577 68.947 137.747 69.7919C137.593 69.9492 137.443 70.0957 137.301 70.2355C137.023 70.508 136.771 70.7546 136.56 71.0055L151.114 74.7238C154.151 75.1964 161.625 74.9312 167.226 70.09C168.133 69.3059 169.045 68.494 169.966 67.6729C176.157 62.1578 182.809 56.2313 191.792 55.5496ZM219.91 59.0543C219.899 59.0745 219.886 59.0965 219.873 59.1204C219.757 59.3304 219.61 59.6224 219.434 59.986C219.163 60.5483 218.849 61.2284 218.515 61.9545C218.417 62.1674 218.317 62.3843 218.216 62.6033C217.62 63.8925 216.17 66.7558 213.488 70.0844C212.511 72.1165 212.741 75.0751 214.155 77.7819C215.582 80.5134 218.042 82.6457 221.025 83.0884C222.549 83.3146 223.383 83.0307 223.884 82.646C224.417 82.2362 224.848 81.5033 225.131 80.3002C225.413 79.1028 225.508 77.6186 225.514 75.9256C225.518 74.8492 225.488 73.7575 225.456 72.6371C225.438 71.9793 225.419 71.3116 225.407 70.6313C225.362 68.0975 224.481 65.6059 223.319 63.5004C222.175 61.4254 220.82 59.8379 219.91 59.0543Z" fill="#8C8C8C"/>
<path fill-rule="evenodd" clip-rule="evenodd" d="M217.445 46.7789L213.137 38.5339L214.443 37.8544L220.016 48.5203L218.652 48.3773L218.456 48.357C218.329 48.344 218.146 48.3254 217.921 48.3027C217.47 48.2575 216.848 48.1964 216.167 48.1331C214.798 48.0058 213.211 47.8719 212.276 47.8371C211.325 47.8018 209.531 47.7642 207.969 47.7354C207.189 47.7211 206.469 47.7089 205.944 47.7004C205.681 47.6961 205.467 47.6927 205.319 47.6904L205.089 47.6869C205.089 47.6869 205.089 47.6869 205.1 46.9522L205.089 47.6869L204.748 47.6817L203.293 45.9181L202.221 44.4016L203.425 43.5549L204.464 45.0264L205.452 46.2228C205.589 46.225 205.764 46.2278 205.968 46.2311C206.494 46.2396 207.215 46.2518 207.996 46.2662C209.556 46.295 211.364 46.3327 212.331 46.3687C213.313 46.4052 214.94 46.5431 216.304 46.6699C216.714 46.708 217.102 46.7453 217.445 46.7789Z" fill="#8C8C8C"/>
<path fill-rule="evenodd" clip-rule="evenodd" d="M212.511 39.6154C213.16 38.6234 212.972 38.186 212.93 38.1279C212.889 38.0698 212.523 37.733 211.239 37.8375C210.065 37.9331 208.55 38.3915 207.033 39.252C205.515 40.1125 204.408 41.1405 203.814 42.0472C203.165 43.0393 203.353 43.4766 203.394 43.5347C203.436 43.5928 203.801 43.9297 205.086 43.8251C206.26 43.7295 207.774 43.2711 209.292 42.4106C210.81 41.5501 211.917 40.5221 212.511 39.6154ZM210.148 43.6067C213.488 41.7127 215.307 38.9347 214.211 37.4019C213.114 35.8691 209.518 36.162 206.177 38.056C202.837 39.95 201.018 42.7279 202.114 44.2607C203.21 45.7935 206.807 45.5007 210.148 43.6067Z" fill="#8C8C8C"/>
<path fill-rule="evenodd" clip-rule="evenodd" d="M139.972 59.2183C139.697 56.1879 135.934 47.5146 121.915 40.5982C107.579 33.5258 75.998 17.1424 61.795 9.72862C55.28 8.6395 41.9981 6.94338 34.0596 6.93437L25.3844 27.2829C26.3093 29.5202 28.2201 33.0675 31.0431 36.614C34.1047 40.4603 38.1613 44.2076 43.0843 46.3265C53.4534 50.7895 95.0758 67.3237 114.879 75.1468C118.324 75.136 122.555 74.9225 126.401 74.1573C130.427 73.3564 133.692 72.0139 135.367 69.9951C137.883 66.9621 138.992 65.2588 139.513 63.8636C140.011 62.527 140.01 61.3849 139.972 59.2183ZM141.444 59.1425C141.146 55.4795 136.955 46.3791 122.567 39.2809C108.18 32.1827 76.3748 15.6816 62.2706 8.31835C55.5656 7.18438 41.1015 5.32951 33.0824 5.47272L23.7929 27.2623C25.549 31.9137 32.0594 43.1818 42.5009 47.6758C52.9423 52.1699 94.9169 68.8423 114.599 76.6167C121.672 76.6167 132.466 75.7961 136.501 70.9321C141.546 64.8521 141.521 63.4595 141.444 59.1425Z" fill="#8C8C8C"/>
<path fill-rule="evenodd" clip-rule="evenodd" d="M96.7674 20.2888C98.4197 20.2593 99.7415 18.8944 99.7118 17.2328C99.6822 15.5712 98.3126 14.2544 96.6602 14.2839C95.0079 14.3134 93.6861 15.6783 93.7158 17.3399C93.7454 19.0015 95.115 20.3183 96.7674 20.2888ZM96.7936 21.758C99.2625 21.7139 101.228 19.6762 101.184 17.2065C101.14 14.7369 99.103 12.7706 96.634 12.8147C94.1651 12.8588 92.1993 14.8966 92.2433 17.3662C92.2874 19.8358 94.3246 21.8021 96.7936 21.758Z" fill="#8C8C8C"/>
<path fill-rule="evenodd" clip-rule="evenodd" d="M96.7163 17.4282C96.791 17.4269 96.8546 17.3645 96.8532 17.2839C96.8518 17.2033 96.786 17.1432 96.7113 17.1445C96.6365 17.1458 96.5729 17.2082 96.5744 17.2889C96.5758 17.3695 96.6416 17.4296 96.7163 17.4282ZM96.7338 18.4077C97.3529 18.3966 97.8459 17.8856 97.8348 17.2663C97.8238 16.6471 97.3129 16.154 96.6938 16.165C96.0747 16.1761 95.5817 16.6871 95.5928 17.3064C95.6038 17.9257 96.1147 18.4188 96.7338 18.4077Z" fill="#8C8C8C"/>
<path d="M38.5611 20.5993C36.697 27.8391 31.8906 32.8593 27.8256 31.8121C23.7607 30.7649 21.9765 24.047 23.8406 16.8071C25.7047 9.56729 30.5111 4.54715 34.576 5.59433C38.641 6.64151 40.4251 13.3595 38.5611 20.5993Z" fill="#EEEEEE"/>
<path fill-rule="evenodd" clip-rule="evenodd" d="M33.3087 28.6359C35.1152 26.7491 36.7122 23.8428 37.6104 20.3544C38.5086 16.866 38.5137 13.5496 37.8432 11.0247C37.1633 8.46496 35.8664 6.93845 34.3318 6.54311C32.7971 6.14777 30.9243 6.85771 29.0929 8.77054C27.2865 10.6573 25.6895 13.5636 24.7913 17.052C23.8931 20.5404 23.8879 23.8568 24.5585 26.3817C25.2383 28.9415 26.5353 30.468 28.0699 30.8633C29.6045 31.2586 31.4773 30.5487 33.3087 28.6359ZM27.8256 31.8121C31.8906 32.8593 36.697 27.8391 38.5611 20.5993C40.4251 13.3595 38.641 6.64151 34.576 5.59433C30.5111 4.54715 25.7047 9.56729 23.8406 16.8071C21.9765 24.0469 23.7607 30.7649 27.8256 31.8121Z" fill="#8C8C8C"/>
<path d="M34.8929 19.8986C33.9458 23.5771 31.4868 26.1235 29.4007 25.5861C27.3145 25.0487 26.3912 21.631 27.3383 17.9525C28.2854 14.274 30.7444 11.7277 32.8305 12.2651C34.9167 12.8025 35.84 16.2202 34.8929 19.8986Z" fill="#EEEEEE"/>
<path fill-rule="evenodd" clip-rule="evenodd" d="M31.5134 23.3026C32.3006 22.4874 33.0447 21.171 33.4669 19.5313C33.8891 17.8916 33.8733 16.3794 33.5777 15.2853C33.2688 14.142 32.7677 13.7664 32.4641 13.6882C32.1605 13.61 31.5404 13.6967 30.7178 14.5485C29.9306 15.3637 29.1865 16.6802 28.7643 18.3199C28.3421 19.9595 28.3579 21.4718 28.6535 22.5659C28.9624 23.7091 29.4636 24.0847 29.7671 24.1629C30.0707 24.2411 30.6909 24.1544 31.5134 23.3026ZM29.4007 25.5861C31.4868 26.1235 33.9458 23.5771 34.8929 19.8986C35.84 16.2202 34.9167 12.8025 32.8305 12.2651C30.7444 11.7277 28.2854 14.274 27.3383 17.9525C26.3912 21.631 27.3145 25.0487 29.4007 25.5861Z" fill="#8C8C8C"/>
<path d="M29.1722 28.306C28.6704 29.9201 27.9459 31.1298 27.554 31.0079C27.1621 30.886 27.2512 29.4787 27.753 27.8646C28.2548 26.2504 28.9793 25.0407 29.3712 25.1626C29.7631 25.2845 29.674 26.6918 29.1722 28.306Z" fill="#8C8C8C"/>
<path d="M26.5966 25.5944C25.5499 26.4027 24.5099 26.8098 24.2736 26.5037C24.0374 26.1976 24.6944 25.2942 25.7411 24.4859C26.7877 23.6777 27.8277 23.2706 28.064 23.5767C28.3002 23.8828 27.6432 24.7862 26.5966 25.5944Z" fill="#8C8C8C"/>
<path d="M25.4453 22.3763C24.2861 22.5804 23.2912 22.4324 23.2232 22.0457C23.1552 21.659 24.0397 21.1801 25.1989 20.976C26.3581 20.7719 27.353 20.9199 27.421 21.3066C27.4891 21.6933 26.6045 22.1722 25.4453 22.3763Z" fill="#8C8C8C"/>
<path d="M25.6485 18.6574C24.5351 18.5001 23.6798 18.038 23.7381 17.6252C23.7964 17.2125 24.7463 17.0055 25.8596 17.1628C26.9729 17.3202 27.8282 17.7823 27.7699 18.195C27.7116 18.6078 26.7618 18.8148 25.6485 18.6574Z" fill="#8C8C8C"/>
<path d="M26.6213 15.0566C25.6418 14.5216 24.9981 13.8125 25.1836 13.4727C25.369 13.133 26.3134 13.2913 27.2929 13.8262C28.2724 14.3612 28.9161 15.0703 28.7306 15.4101C28.5451 15.7498 27.6008 15.5916 26.6213 15.0566Z" fill="#8C8C8C"/>
<path d="M28.6617 11.8171C27.7445 10.8692 27.2185 9.89013 27.4869 9.63026C27.7553 9.3704 28.7164 9.92814 29.6337 10.876C30.5509 11.8239 31.0769 12.8029 30.8085 13.0628C30.5401 13.3227 29.5789 12.7649 28.6617 11.8171Z" fill="#8C8C8C"/>
<path d="M32.5706 9.30967C32.9567 7.57836 33.5444 6.23614 33.8832 6.31174C34.2221 6.38735 34.1838 7.85214 33.7977 9.58345C33.4116 11.3148 32.8239 12.657 32.4851 12.5814C32.1463 12.5058 32.1846 11.041 32.5706 9.30967Z" fill="#8C8C8C"/>
<path d="M35.2437 10.9426C36.3305 9.93318 37.4283 9.34834 37.6957 9.63638C37.9631 9.92441 37.2988 10.9762 36.212 11.9857C35.1252 12.9951 34.0274 13.58 33.76 13.2919C33.4926 13.0039 34.1569 11.9521 35.2437 10.9426Z" fill="#8C8C8C"/>
<path d="M36.4929 14.8871C37.5171 14.5944 38.4305 14.6484 38.5331 15.0077C38.6358 15.3669 37.8887 15.8955 36.8646 16.1882C35.8405 16.481 34.9271 16.427 34.8244 16.0677C34.7218 15.7084 35.4688 15.1798 36.4929 14.8871Z" fill="#8C8C8C"/>
<path d="M36.5954 18.0928C37.5235 18.1428 38.2612 18.4566 38.2431 18.7937C38.2249 19.1308 37.4578 19.3636 36.5297 19.3136C35.6015 19.2637 34.8638 18.9499 34.882 18.6127C34.9001 18.2756 35.6672 18.0428 36.5954 18.0928Z" fill="#8C8C8C"/>
<path d="M35.7336 20.8564C36.5848 21.091 37.1947 21.5717 37.096 21.9302C36.9973 22.2887 36.2272 22.3892 35.3761 22.1546C34.525 21.9201 33.915 21.4394 34.0137 21.0809C34.1124 20.7224 34.8825 20.6219 35.7336 20.8564Z" fill="#8C8C8C"/>
<path d="M34.485 23.8206C35.3259 24.3003 35.8677 24.9346 35.6951 25.2373C35.5225 25.54 34.7009 25.3966 33.86 24.9169C33.0191 24.4372 32.4773 23.8029 32.6499 23.5002C32.8225 23.1975 33.6441 23.341 34.485 23.8206Z" fill="#8C8C8C"/>
<path d="M32.4538 26.5711C32.9999 27.6507 33.1345 28.6817 32.7546 28.874C32.3747 29.0662 31.6241 28.3469 31.078 27.2673C30.532 26.1877 30.3973 25.1566 30.7772 24.9644C31.1572 24.7721 31.9078 25.4915 32.4538 26.5711Z" fill="#8C8C8C"/>
<path fill-rule="evenodd" clip-rule="evenodd" d="M52.0334 48.54C52.2677 48.5358 52.4563 48.3421 52.452 48.1048C52.4478 47.8675 52.2524 47.6806 52.0181 47.6848C51.7838 47.689 51.5952 47.8827 51.5995 48.12C51.6037 48.3573 51.7991 48.5442 52.0334 48.54ZM52.0421 49.0297C52.5486 49.0207 52.9519 48.6027 52.9428 48.096C52.9338 47.5894 52.5159 47.186 52.0094 47.195C51.5029 47.2041 51.0996 47.6221 51.1086 48.1288C51.1177 48.6354 51.5356 49.0388 52.0421 49.0297Z" fill="#8C8C8C"/>
<path fill-rule="evenodd" clip-rule="evenodd" d="M60.1935 39.6025C60.4278 39.5983 60.6164 39.4046 60.6122 39.1673C60.608 38.93 60.4126 38.7431 60.1783 38.7473C59.944 38.7515 59.7554 38.9452 59.7596 39.1825C59.7638 39.4198 59.9592 39.6067 60.1935 39.6025ZM60.2023 40.0922C60.7088 40.0832 61.112 39.6651 61.103 39.1585C61.094 38.6519 60.676 38.2485 60.1695 38.2575C59.663 38.2666 59.2598 38.6846 59.2688 39.1913C59.2778 39.6979 59.6958 40.1013 60.2023 40.0922Z" fill="#8C8C8C"/>
<path fill-rule="evenodd" clip-rule="evenodd" d="M66.8547 20.7602C67.089 20.756 67.2776 20.5623 67.2733 20.325C67.2691 20.0877 67.0737 19.9008 66.8394 19.905C66.6051 19.9092 66.4165 20.1029 66.4207 20.3402C66.425 20.5775 66.6204 20.7644 66.8547 20.7602ZM66.8634 21.2499C67.3699 21.2409 67.7732 20.8229 67.7641 20.3162C67.7551 19.8096 67.3372 19.4062 66.8307 19.4153C66.3242 19.4243 65.9209 19.8423 65.9299 20.349C65.939 20.8556 66.3569 21.259 66.8634 21.2499Z" fill="#8C8C8C"/>
<path fill-rule="evenodd" clip-rule="evenodd" d="M134.386 56.4423C134.62 56.4382 134.809 56.2444 134.805 56.0071C134.8 55.7698 134.605 55.5829 134.371 55.5871C134.136 55.5913 133.948 55.7851 133.952 56.0223C133.956 56.2596 134.152 56.4465 134.386 56.4423ZM134.395 56.9321C134.901 56.923 135.304 56.505 135.295 55.9984C135.286 55.4917 134.868 55.0883 134.362 55.0974C133.855 55.1064 133.452 55.5245 133.461 56.0311C133.47 56.5377 133.888 56.9411 134.395 56.9321Z" fill="#8C8C8C"/>
<path fill-rule="evenodd" clip-rule="evenodd" d="M129.729 69.6704C129.963 69.6662 130.152 69.4724 130.147 69.2351C130.143 68.9979 129.948 68.811 129.713 68.8152C129.479 68.8193 129.291 69.0131 129.295 69.2504C129.299 69.4877 129.494 69.6746 129.729 69.6704ZM129.737 70.1601C130.244 70.1511 130.647 69.733 130.638 69.2264C130.629 68.7197 130.211 68.3164 129.705 68.3254C129.198 68.3345 128.795 68.7525 128.804 69.2591C128.813 69.7658 129.231 70.1692 129.737 70.1601Z" fill="#8C8C8C"/>
<path fill-rule="evenodd" clip-rule="evenodd" d="M95.9909 25.7357L98.4311 21.4469C97.5568 21.8002 96.5051 21.8845 95.3419 21.4624C93.907 20.9418 92.9982 20.0287 92.4441 19.0817L90.2824 22.8879L95.9909 25.7357ZM96.5818 27.6734L100.754 20.3396L100.755 18.8569L99.7727 18.1225C99.6815 18.3407 99.5433 18.5979 99.3595 18.8572C99.3344 18.8925 99.3085 18.9279 99.2818 18.9632C99.1835 19.0931 99.0738 19.2222 98.953 19.3459C98.2657 20.0496 97.2173 20.5792 95.8454 20.0815C94.3638 19.544 93.6444 18.438 93.3387 17.5065C93.2257 17.1624 93.1692 16.8421 93.1516 16.583C93.1474 16.521 93.1454 16.4625 93.1454 16.408L92.409 16.1632L88.2363 23.5102L96.5818 27.6734Z" fill="#8C8C8C"/>
<path fill-rule="evenodd" clip-rule="evenodd" d="M127.648 31.9512C127.723 31.9499 127.786 31.8876 127.785 31.8068C127.783 31.7261 127.717 31.6661 127.643 31.6674C127.568 31.6688 127.505 31.7311 127.506 31.8118C127.508 31.8925 127.573 31.9526 127.648 31.9512ZM127.665 32.9307C128.285 32.9196 128.777 32.4086 128.766 31.7893C128.755 31.17 128.245 30.6769 127.625 30.688C127.006 30.699 126.513 31.21 126.524 31.8293C126.535 32.4486 127.046 32.9417 127.665 32.9307Z" fill="#8C8C8C"/>
<path fill-rule="evenodd" clip-rule="evenodd" d="M127.68 34.1227C128.963 34.0998 129.991 33.0393 129.968 31.7463C129.945 30.4532 128.88 29.4301 127.596 29.453C126.313 29.4759 125.284 30.5364 125.307 31.8295C125.331 33.1225 126.396 34.1457 127.68 34.1227ZM127.706 35.5919C129.806 35.5544 131.478 33.8209 131.441 31.72C131.403 29.6191 129.67 27.9464 127.57 27.9839C125.47 28.0214 123.797 29.7549 123.835 31.8558C123.872 33.9567 125.605 35.6294 127.706 35.5919Z" fill="#8C8C8C"/>
</svg>
