<svg width="255" height="96" viewBox="0 0 255 96" fill="none" xmlns="http://www.w3.org/2000/svg">
<g clip-path="url(#clip0_5596_109300)">
<rect width="255" height="96" fill="white"/>
<path d="M183.302 45.5865L206.711 29.634C205.737 28.4798 204.087 26.7291 202.304 25.0958L182.338 12.4438C180.088 11.5331 177.465 10.5785 175.039 9.96841C158.846 4.7976 137.998 15.8818 129.598 22.0703L122.713 24.8895C119.077 35.5062 118.352 53.2877 118.444 60.8514L117.067 64.9771L128.083 81.6172L129.598 89.3184H157.827H225.025L225.989 83.9551L223.924 74.6036L225.989 64.152L214.422 55.4881C214.422 55.4881 212.219 61.264 210.016 63.0518C207.813 64.8396 203.957 64.152 203.957 64.152C200.927 63.5102 194.125 61.9516 191.151 60.8514C188.176 59.7513 186.331 57.5509 185.78 56.5883L183.302 45.5865Z" fill="#EEEEEE"/>
<path fill-rule="evenodd" clip-rule="evenodd" d="M149.591 12.3199C141.368 15.1963 134.108 19.4846 129.949 22.5482L129.89 22.5918L123.188 25.3362C121.444 30.5489 120.384 37.4734 119.771 44.0704C119.149 50.7664 118.991 57.0819 119.037 60.8444L119.038 60.9445L117.721 64.8908L128.642 81.3877L130.085 88.7252H224.529L225.384 83.9672L223.317 74.6105L225.334 64.4032L214.684 56.4257C214.654 56.4963 214.623 56.5712 214.59 56.6499C214.345 57.2269 213.996 58.016 213.577 58.8631C213.157 59.7089 212.664 60.6206 212.131 61.4397C211.602 62.2507 211.012 63.0077 210.389 63.5127C209.138 64.5278 207.466 64.812 206.184 64.8653C205.532 64.8924 204.954 64.8608 204.539 64.8225C204.331 64.8033 204.162 64.7823 204.044 64.7658C203.986 64.7576 203.939 64.7505 203.907 64.7453C203.893 64.7431 203.882 64.7413 203.873 64.7399L203.869 64.7391L203.858 64.7372L203.854 64.7366L203.853 64.7364L203.853 64.7363C203.852 64.7363 203.852 64.7363 203.957 64.1521L203.853 64.7363L203.843 64.7346L203.834 64.7326C200.814 64.0929 193.967 62.5261 190.944 61.4081C187.818 60.2518 185.873 57.9455 185.265 56.8831L185.221 56.8058L182.634 45.3235L205.827 29.5184C204.858 28.4194 203.45 26.9538 201.942 25.5689L182.065 12.9739C179.838 12.0738 177.265 11.14 174.894 10.544L174.876 10.5395L174.859 10.5338C166.94 8.00538 157.826 9.43959 149.591 12.3199ZM204.068 63.5693C204.074 63.5702 204.083 63.5716 204.094 63.5735C204.119 63.5775 204.158 63.5834 204.208 63.5905C204.31 63.6047 204.46 63.6234 204.648 63.6407C205.024 63.6755 205.548 63.704 206.135 63.6796C207.332 63.6298 208.689 63.3638 209.642 62.5912C210.121 62.2023 210.632 61.5668 211.136 60.7921C211.635 60.0254 212.106 59.1579 212.513 58.3362C212.92 57.5159 213.259 56.7492 213.497 56.1874C213.616 55.9067 213.709 55.6778 213.772 55.5196C213.804 55.4405 213.828 55.3792 213.844 55.3379L213.862 55.2913L213.866 55.2799L213.867 55.2768L214.148 54.5416L226.643 63.901L224.529 74.597L226.594 83.9433L225.521 89.912H129.109L127.523 81.8471L116.412 65.0637L117.849 60.7585C117.807 56.9464 117.969 50.6416 118.589 43.9606C119.215 37.2296 120.31 30.0737 122.151 24.6974L122.238 24.4426L129.305 21.5491C133.555 18.4275 140.89 14.1062 149.2 11.1997C157.531 8.28552 166.931 6.7631 175.202 9.39765C177.661 10.0175 180.305 10.981 182.56 11.8939L182.61 11.9141L202.666 24.6229L202.705 24.6585C204.505 26.308 206.173 28.0769 207.164 29.2515L207.588 29.7542L183.969 45.8498L186.338 56.3674C186.885 57.2707 188.611 59.2796 191.356 60.2951C194.279 61.3761 201.024 62.924 204.068 63.5693Z" fill="#8C8C8C"/>
<path d="M130.011 88.9059H151.355C150.473 45.339 161.774 17.3029 167.879 9.00578C154.66 7.90562 138.411 16.1569 130.011 22.3454L123.126 25.0958C119.49 35.7125 118.765 53.1503 118.857 60.714L117.48 64.8396L128.496 81.4797L130.011 88.9059Z" fill="#E0E0E0"/>
<path d="M192.252 8.59326H177.793L185.78 11.6187L176.692 14.3692L184.541 19.32L169.806 22.0704L163.748 34.4474H177.793L190.427 29.6685L203.061 24.8896L215.696 20.1107L228.33 15.3318L230.12 13.1315L192.252 8.59326Z" fill="white"/>
<path fill-rule="evenodd" clip-rule="evenodd" d="M177.583 9.14826L177.794 8H192.288L231.26 12.6706L228.69 15.8304L177.902 35.0408H162.797L169.405 21.5419L182.944 19.0145L175.276 14.1778L183.939 11.556L177.583 9.14826ZM181.035 9.18674L187.621 11.6817L178.108 14.5608L186.138 19.6256L170.209 22.5991L164.699 33.8541H177.685L227.971 14.8335L228.98 13.5926L192.217 9.18674H181.035Z" fill="#8C8C8C"/>
<path fill-rule="evenodd" clip-rule="evenodd" d="M175.039 30.5101C176.515 30.5101 177.708 29.316 177.708 27.8462C177.708 26.3765 176.515 25.1823 175.039 25.1823C173.564 25.1823 172.37 26.3765 172.37 27.8462C172.37 29.316 173.564 30.5101 175.039 30.5101ZM175.039 31.6968C177.169 31.6968 178.895 29.9728 178.895 27.8462C178.895 25.7196 177.169 23.9956 175.039 23.9956C172.91 23.9956 171.184 25.7196 171.184 27.8462C171.184 29.9728 172.91 31.6968 175.039 31.6968Z" fill="#8C8C8C"/>
<g clip-path="url(#clip1_5596_109300)">
<path d="M139.274 32.1329C139.4 32.0334 139.543 32.0105 139.684 31.9806C140.249 31.8615 140.819 31.749 141.394 31.7225C142.159 31.687 142.928 31.688 143.692 31.7228C144.267 31.749 144.837 31.8645 145.402 31.9816C145.435 31.9883 145.468 31.9932 145.5 32.0015C145.774 32.0695 145.883 32.0666 145.823 32.4421C145.738 32.966 145.728 33.4975 145.733 34.029C145.735 34.2049 145.706 34.3807 145.695 34.5569C145.688 34.6671 145.668 34.7809 145.688 34.887C145.743 35.1833 145.738 35.4816 145.738 35.7798C145.74 36.3475 145.934 36.8435 146.312 37.2616C146.52 37.4918 146.773 37.6743 147.044 37.8316C147.568 38.1365 148.136 38.3339 148.726 38.4454C149.226 38.5399 149.733 38.5821 150.248 38.4842C150.964 38.3482 151.457 37.956 151.741 37.2994C151.955 36.807 152.037 36.2858 152.08 35.753C152.118 35.2785 152.147 34.8051 152.132 34.3296C152.127 34.1422 152.103 33.9554 152.095 33.7683C152.087 33.5589 152.082 33.3489 152.089 33.1395C152.092 33.033 152.166 32.9846 152.271 32.9952C152.315 32.9995 152.359 33.0088 152.402 33.0201C152.831 33.1336 153.261 33.2437 153.689 33.3632C154.095 33.4766 154.503 33.5874 154.902 33.7231C155.364 33.8804 155.823 34.0486 156.272 34.2391C156.803 34.4643 157.321 34.7188 157.845 34.9607C157.885 34.9793 157.925 34.9978 157.966 35.0161C158.11 35.0804 158.185 35.1873 158.202 35.3479C158.247 35.7546 158.275 36.1607 158.278 36.5708C158.281 37.0472 158.266 37.5237 158.19 37.9915C158.059 38.8014 157.865 39.5963 157.447 40.3179C157.172 40.794 156.826 41.2061 156.363 41.5133C156.29 41.5621 156.22 41.6172 156.151 41.6726C156.135 41.6849 156.13 41.7101 156.112 41.7456C156.142 41.8803 156.243 41.9835 156.337 42.0893C156.829 42.6384 157.21 43.2542 157.52 43.9224C157.989 44.9337 158.28 45.9987 158.525 47.078C158.683 47.7787 158.822 48.484 158.958 49.1894C159.012 49.4707 159.036 49.7581 159.075 50.0424C159.093 50.1738 159.115 50.3045 159.133 50.4359C159.209 50.9943 159.239 51.5563 159.285 52.1177C159.386 53.3662 159.317 54.6147 159.334 55.8628C159.337 56.0383 159.307 56.2145 159.295 56.3904C159.286 56.5224 159.278 56.6551 159.274 56.7875C159.266 57.0745 159.282 57.3625 159.22 57.6468C159.204 57.7215 159.21 57.8011 159.206 57.8784C159.18 58.3193 159.167 58.7613 159.127 59.2009C159.054 59.9935 158.929 60.7781 158.781 61.5611C158.622 62.4032 158.342 63.2055 158.049 64.0044C157.881 64.4609 157.691 64.9095 157.496 65.3554C157.238 65.946 156.887 66.4841 156.511 67.0067C156.03 67.6749 155.473 68.2754 154.867 68.8308C154.318 69.3344 153.704 69.7521 153.048 70.1088C152.008 70.6748 150.902 71.069 149.75 71.336C149.101 71.4867 148.444 71.5982 147.78 71.6642C147.207 71.7212 146.633 71.785 146.06 71.8427C145.949 71.8536 145.838 71.8526 145.727 71.8526C143.605 71.853 141.483 71.854 139.361 71.8506C139.173 71.8503 138.985 71.8228 138.798 71.8072C138.477 71.7806 138.156 71.7554 137.836 71.7259C136.55 71.6071 135.281 71.3898 134.054 70.9827C132.769 70.5564 131.576 69.9519 130.524 69.0906C130.042 68.6961 129.612 68.2518 129.202 67.7847C128.681 67.1908 128.231 66.5491 127.844 65.8633C127.693 65.5943 127.566 65.3096 127.444 65.0256C127.013 64.0286 126.636 63.013 126.392 61.9533C126.245 61.318 126.109 60.6796 126.065 60.0263C126.06 59.9494 126.04 59.8737 126.029 59.7971C125.987 59.5018 125.95 59.2075 125.937 58.9079C125.914 58.3568 125.86 57.8074 125.82 57.257C125.813 57.1578 125.815 57.0579 125.808 56.9587C125.795 56.7716 125.777 56.5848 125.763 56.3977C125.755 56.2875 125.746 56.177 125.746 56.0669C125.745 54.9388 125.737 53.8108 125.75 52.683C125.755 52.2756 125.809 51.8689 125.845 51.4621C125.871 51.1764 125.908 50.8914 125.932 50.6054C125.978 50.0427 126.082 49.4883 126.182 48.9343C126.389 47.7916 126.632 46.6559 126.954 45.5395C127.288 44.3822 127.775 43.2967 128.53 42.3444C128.647 42.1975 128.783 42.0654 128.905 41.9227C129.015 41.7947 129.006 41.7237 128.872 41.6192C128.775 41.5445 128.677 41.4729 128.578 41.4012C128.012 40.9895 127.654 40.4208 127.381 39.7964C127.082 39.1119 126.935 38.3896 126.863 37.6458C126.824 37.237 126.8 36.8303 126.811 36.4218C126.822 36.0579 126.859 35.6949 126.882 35.3313C126.893 35.1514 127.009 35.0582 127.157 34.9895C127.459 34.8499 127.76 34.7075 128.064 34.5712C128.347 34.4438 128.635 34.3256 128.918 34.1989C129.69 33.8532 130.495 33.601 131.313 33.388C131.753 33.2732 132.19 33.1468 132.631 33.034C132.96 32.9494 132.998 32.9813 133.001 33.3217C133.003 33.5977 132.986 33.8724 132.962 34.1485C132.931 34.4995 132.937 34.8562 132.956 35.2085C132.975 35.5718 133.026 35.9338 133.069 36.2954C133.12 36.7158 133.238 37.1156 133.439 37.4925C133.675 37.9348 134.022 38.2377 134.501 38.3893C134.986 38.5426 135.477 38.5801 135.981 38.5024C136.679 38.3953 137.35 38.2131 137.968 37.8664C138.269 37.6975 138.552 37.5054 138.785 37.2463C139.117 36.8777 139.297 36.4464 139.329 35.9557C139.359 35.4932 139.384 35.03 139.401 34.5669C139.407 34.4245 139.381 34.2812 139.368 34.1382C139.364 34.0941 139.353 34.0506 139.351 34.0068C139.318 33.4006 139.287 32.7942 139.256 32.188C139.255 32.1774 139.262 32.1671 139.274 32.1329ZM143.001 67.009C144.051 66.9748 145.584 67.0879 147.114 66.9476C147.435 66.9181 147.758 66.9071 148.074 66.8537C148.797 66.7316 149.514 66.5787 150.203 66.3165C150.791 66.0929 151.323 65.785 151.779 65.3491C152.229 64.9201 152.55 64.4085 152.785 63.8401C153.026 63.2565 153.224 62.6583 153.37 62.0436C153.578 61.1713 153.73 60.2901 153.81 59.3969C153.839 59.0781 153.869 58.7593 153.896 58.4401C153.933 57.9892 153.991 57.5383 153.998 57.0868C154.016 56.0254 154.017 54.9637 154.008 53.902C153.999 52.8307 154.054 51.7577 153.943 50.6877C153.905 50.3145 153.904 49.9369 153.857 49.565C153.779 48.9406 153.696 48.3171 153.564 47.6994C153.392 46.8968 153.187 46.1078 152.852 45.3557C152.639 44.8792 152.401 44.4184 152.073 44.008C151.723 43.5697 151.301 43.2197 150.805 42.9539C150.21 42.6354 149.567 42.4685 148.914 42.3298C148.414 42.2237 147.907 42.158 147.398 42.1202C146.867 42.0807 146.337 42.0147 145.805 42.0064C144.617 41.9878 143.428 41.9884 142.239 41.9994C141.041 42.0103 139.842 41.9589 138.643 42.0505C138.145 42.0886 137.648 42.1248 137.152 42.1766C136.463 42.2482 135.793 42.3959 135.133 42.5943C133.967 42.9443 133.114 43.6729 132.531 44.7286C132.138 45.4413 131.871 46.2011 131.67 46.986C131.516 47.5862 131.395 48.1924 131.321 48.8082C131.245 49.4329 131.141 50.0547 131.135 50.6864C131.134 50.7524 131.124 50.8184 131.119 50.8848C131.102 51.116 131.072 51.347 131.072 51.5782C131.068 53.3366 131.069 55.0948 131.071 56.8532C131.071 57.03 131.081 57.2069 131.092 57.383C131.104 57.5811 131.123 57.7789 131.138 57.9769C131.157 58.2188 131.172 58.4613 131.193 58.7029C131.214 58.9338 131.239 59.1644 131.266 59.395C131.319 59.8558 131.351 60.3203 131.434 60.7755C131.54 61.3511 131.676 61.9225 131.823 62.4891C131.99 63.1325 132.222 63.7552 132.535 64.3444C132.809 64.8597 133.183 65.2927 133.647 65.6493C134.211 66.0823 134.854 66.3521 135.532 66.5388C136.131 66.7041 136.739 66.8374 137.361 66.8909C137.858 66.9337 138.355 66.997 138.853 67.0037C140.075 67.0203 141.297 67.009 143.001 67.009Z" fill="#002550"/>
<path d="M134.673 54.345C134.673 51.3812 134.673 48.4174 134.673 45.4536C134.673 45.3322 134.677 45.2104 134.686 45.0893C134.692 45.0024 134.747 44.947 134.834 44.9347C134.911 44.9241 134.989 44.9201 135.066 44.9201C136.321 44.9191 137.577 44.9181 138.832 44.9201C139.24 44.9208 139.269 44.9503 139.27 45.3557C139.271 47.1361 139.27 48.9167 139.271 50.6971C139.271 50.8075 139.267 50.9187 139.276 51.0285C139.3 51.3208 139.441 51.5059 139.728 51.573C139.964 51.6284 140.209 51.6741 140.451 51.6758C141.862 51.6851 143.273 51.6864 144.684 51.6748C144.935 51.6728 145.188 51.6048 145.438 51.556C145.665 51.5116 145.774 51.3507 145.795 51.1327C145.81 50.99 145.808 50.8457 145.808 50.702C145.809 48.9658 145.808 47.2296 145.809 45.4934C145.809 45.372 145.809 45.2499 145.82 45.1291C145.832 45.0077 145.891 44.9486 146.009 44.9327C146.097 44.9208 146.187 44.9201 146.275 44.9201C147.508 44.9194 148.742 44.9188 149.975 44.9201C150.395 44.9204 150.408 44.9337 150.409 45.3478C150.41 47.0176 150.409 48.6875 150.409 50.3573C150.409 54.6369 150.409 58.9169 150.409 63.1965C150.409 63.3289 150.405 63.4616 150.394 63.5937C150.387 63.6806 150.33 63.7357 150.243 63.7453C150.144 63.7563 150.044 63.7599 149.944 63.7599C148.722 63.7609 147.5 63.7609 146.278 63.7602C145.813 63.7599 145.809 63.7563 145.809 63.3017C145.808 61.1896 145.809 59.0772 145.808 56.965C145.808 56.8323 145.812 56.6993 145.804 56.5669C145.786 56.2401 145.685 56.1107 145.371 56.0221C145.243 55.986 145.111 55.9521 144.98 55.9435C144.515 55.9123 144.05 55.8808 143.584 55.8715C142.984 55.8596 142.384 55.8818 141.784 55.8645C141.249 55.8489 140.721 55.9262 140.189 55.9418C140.004 55.9475 139.817 56.0039 139.636 56.0536C139.434 56.1091 139.32 56.2567 139.293 56.4604C139.275 56.6021 139.272 56.7467 139.272 56.8904C139.271 59.0025 139.271 61.115 139.271 63.2271C139.271 63.3375 139.272 63.4487 139.263 63.5585C139.251 63.6853 139.199 63.7393 139.076 63.7516C138.977 63.7616 138.877 63.7602 138.777 63.7602C137.577 63.7609 136.377 63.7609 135.177 63.7606C134.675 63.7602 134.674 63.7596 134.674 63.2695C134.673 60.2948 134.673 57.3197 134.673 54.345Z" fill="#002550"/>
</g>
<path d="M167.19 45.1744C174.792 39.4535 194.731 30.7804 203.544 27.2965L204.232 27.0215C206.015 28.6548 205.737 28.4802 206.711 29.6344L183.302 45.5869L185.78 56.5886C186.331 57.5513 188.176 59.7516 191.151 60.8518C194.125 61.952 200.927 63.5106 203.957 64.1523C203.957 64.1523 207.813 64.8399 210.016 63.0522C212.219 61.2644 214.422 55.4885 214.422 55.4885L225.989 64.1523L223.924 74.604L225.989 83.9555L225.301 88.0811H225.163L222.96 86.7059V83.818L217.865 73.3663C221.39 69.6257 222.73 66.2152 222.96 64.9775C222.96 64.5191 222.134 64.2899 218.829 67.0403C214.698 70.4784 207.262 69.6532 203.131 68.4155C199.826 67.4254 187.524 66.3527 181.787 65.9401L171.046 63.0522L182.475 59.7517L175.866 45.1744H167.19Z" fill="white"/>
<path fill-rule="evenodd" clip-rule="evenodd" d="M204.358 26.332L204.633 26.5839C205.522 27.3989 205.918 27.7813 206.215 28.1098C206.37 28.2815 206.507 28.4508 206.677 28.66C206.811 28.8253 206.965 29.0156 207.164 29.2516L207.588 29.7543L183.969 45.8499L186.338 56.3675C186.885 57.2708 188.611 59.2797 191.356 60.2952C194.279 61.3762 201.024 62.9241 204.069 63.5694C204.074 63.5703 204.083 63.5717 204.094 63.5736C204.101 63.5747 204.11 63.5761 204.12 63.5775C204.143 63.5811 204.173 63.5856 204.209 63.5906C204.31 63.6048 204.46 63.6235 204.648 63.6408C205.025 63.6756 205.548 63.7041 206.135 63.6797C207.332 63.6299 208.689 63.3639 209.642 62.5913C210.121 62.2024 210.632 61.5669 211.136 60.7922C211.636 60.0255 212.106 59.158 212.513 58.3363C212.92 57.5159 213.259 56.7493 213.497 56.1875C213.616 55.9068 213.709 55.6779 213.772 55.5197C213.804 55.4406 213.828 55.3792 213.844 55.338L213.862 55.2914L213.866 55.28L213.868 55.2769L214.148 54.5417L226.643 63.9011L224.53 74.5971L226.593 83.9396L225.803 88.6744H224.993L222.366 87.0349V83.9548L217.151 73.2576L217.433 72.9592C220.452 69.7557 221.808 66.8297 222.242 65.4004C221.702 65.6252 220.754 66.2096 219.208 67.4963C216.995 69.3382 213.946 70.0042 210.994 70.0744C208.03 70.1449 205.075 69.6176 202.96 68.9838C201.372 68.5081 197.534 67.9968 193.309 67.5512C189.111 67.1086 184.608 66.7378 181.744 66.5319L181.687 66.5278L168.836 63.0724L181.651 59.3718L175.483 45.7676H165.415L166.833 44.7001C170.689 41.7985 177.626 38.1772 184.659 34.8598C191.708 31.5353 198.907 28.4913 203.324 26.745C203.325 26.7449 203.325 26.7447 203.325 26.7446L204.358 26.332ZM214.684 56.4258C214.654 56.4964 214.623 56.5713 214.59 56.65C214.346 57.227 213.996 58.0161 213.577 58.8632C213.158 59.709 212.664 60.6207 212.131 61.4398C211.603 62.2508 211.012 63.0078 210.389 63.5128C209.138 64.5279 207.466 64.812 206.185 64.8654C205.532 64.8925 204.954 64.8609 204.539 64.8226C204.331 64.8034 204.162 64.7824 204.045 64.7659C203.986 64.7577 203.939 64.7506 203.907 64.7454C203.891 64.7428 203.878 64.7407 203.869 64.7392L203.858 64.7373L203.854 64.7367L203.853 64.7365L203.853 64.7364C203.853 64.7364 203.852 64.7364 203.957 64.1522L203.853 64.7364L203.843 64.7347L203.834 64.7327C200.814 64.093 193.967 62.5262 190.944 61.4082C187.818 60.2519 185.873 57.9456 185.265 56.8832L185.221 56.8059L182.634 45.3236L205.838 29.5107C205.798 29.4606 205.76 29.4145 205.726 29.3713C205.582 29.1937 205.479 29.0651 205.334 28.9051C205.108 28.6548 204.801 28.3522 204.105 27.7109L203.764 27.8474L203.762 27.8482C199.366 29.5859 192.19 32.6201 185.166 35.9331C178.988 38.8469 172.969 41.9575 169.056 44.5809H176.248L183.299 60.1313L173.255 63.0317L181.886 65.3522C184.762 65.5597 189.247 65.9296 193.433 66.371C197.619 66.8125 201.584 67.3325 203.301 67.847C205.316 68.4509 208.146 68.955 210.965 68.888C213.796 68.8207 216.531 68.1802 218.449 66.5841C220.11 65.2016 221.208 64.5152 221.927 64.2489C222.273 64.121 222.641 64.0481 222.966 64.1565C223.146 64.2164 223.306 64.3305 223.415 64.4986C223.52 64.6603 223.553 64.8329 223.553 64.9774V65.0319L223.543 65.0855C223.295 66.4219 221.956 69.7842 218.576 73.472L223.553 83.6809V86.3767L224.848 87.1853L225.385 83.9711L223.317 74.6106L225.334 64.4033L214.684 56.4258Z" fill="#8C8C8C"/>
<path d="M204.37 64.7024C213.844 68.7731 218.828 63.5564 219.93 60.1642L214.56 56.0386C210.704 66.0777 207.124 64.4274 204.37 64.7024Z" fill="#FFED00"/>
<path d="M54.5007 10.8949L55.3751 21.7167L88.9669 81.5992C90.8072 81.3446 92.8711 80.481 93.673 80.081C93.825 79.213 94.2909 76.1405 94.9384 70.7947C95.586 65.4488 94.4595 56.1855 93.8153 52.2221C93.6349 47.8869 92.8853 38.7233 92.9378 36.4579C92.9851 34.4191 92.8266 31.1039 92.8294 28.748L91.461 18.3145C90.9602 16.9015 89.2563 14.3425 86.4478 15.4099C82.9371 16.7442 86.2873 24.562 86.7961 30.6399C87.2032 35.5023 85.8473 36.4961 85.1185 36.3852L84.2997 28.2403L81.9313 9.76123C81.5133 8.49914 79.9844 6.00124 77.2133 6.10643C74.4421 6.21162 74.4881 9.44329 74.8574 11.046L76.0532 18.1603L77.1878 30.9585C77.1295 34.2865 76.6491 33.4117 76.4162 32.5583L72.437 9.42876C72.4857 7.8718 71.661 4.83906 67.9732 5.16381C64.2854 5.48856 64.564 8.75759 65.1643 10.3515C65.8913 15.6821 67.4326 27.6612 67.7812 32.9322C68.1299 38.2033 66.9599 35.6579 66.3314 33.7263C65.3793 29.7746 63.2909 20.6772 62.5541 15.9012C61.6331 9.93125 60.0809 9.2511 57.8535 9.05851C56.0715 8.90443 54.8758 10.2185 54.5007 10.8949Z" fill="#002550"/>
<path fill-rule="evenodd" clip-rule="evenodd" d="M55.1681 11.0539L56.014 21.5228L89.3129 80.8832C90.7449 80.6157 92.2616 80.0193 93.087 79.6395C93.2773 78.4703 93.7109 75.5139 94.2921 70.716C94.9274 65.4722 93.8174 56.2923 93.1727 52.3261L93.1665 52.2876L93.1649 52.2487C93.0896 50.4395 92.9145 47.7826 92.7397 45.1306C92.7061 44.6201 92.6725 44.1098 92.6396 43.6058C92.4374 40.508 92.2599 37.6119 92.287 36.4424C92.3102 35.4412 92.2829 34.1186 92.2495 32.7372C92.2456 32.5758 92.2416 32.4136 92.2376 32.2512C92.208 31.048 92.178 29.8293 92.1784 28.7898L90.8248 18.4694C90.5922 17.8461 90.1075 17.0049 89.4092 16.4369C88.7208 15.877 87.8341 15.5801 86.6805 16.0185C86.0919 16.2422 85.7413 16.7293 85.593 17.6066C85.4401 18.5108 85.5295 19.714 85.7589 21.1433C85.9314 22.2184 86.1743 23.3738 86.427 24.5762C86.5085 24.964 86.591 25.3566 86.6725 25.753C87.0038 27.3641 87.3157 29.0249 87.4463 30.586C87.6536 33.0617 87.4239 34.6553 86.9784 35.6449C86.5291 36.6429 85.7798 37.1443 85.0214 37.0289L84.5213 36.9528L83.6528 28.3139L81.2939 9.90852C81.1018 9.35996 80.6711 8.54756 79.998 7.88463C79.3117 7.20864 78.4026 6.7129 77.2391 6.75707C76.6822 6.77821 76.3163 6.95076 76.0621 7.18038C75.7986 7.41831 75.6073 7.76131 75.4856 8.19193C75.2374 9.06995 75.3224 10.1588 75.4933 10.9002L75.4976 10.9192L76.7009 18.0779L77.8408 30.9357L77.8402 30.9702C77.8254 31.8123 77.7838 32.4155 77.7204 32.831C77.689 33.0366 77.6487 33.2214 77.5926 33.3753C77.5492 33.4941 77.4462 33.7445 77.1953 33.8898C77.0435 33.9776 76.863 34.0114 76.6824 33.9756C76.5184 33.9432 76.3993 33.8628 76.3261 33.8006C76.1885 33.6838 76.101 33.535 76.0503 33.4383C75.9391 33.2263 75.8508 32.9587 75.7881 32.7292L75.7799 32.699L71.7842 9.4738L71.7863 9.40802C71.8075 8.72823 71.6323 7.73558 71.0792 6.97226C70.5595 6.25519 69.6588 5.66911 68.0316 5.81241C67.206 5.8851 66.6596 6.11683 66.2963 6.40044C65.9352 6.68222 65.7115 7.04887 65.5859 7.46853C65.3255 8.33866 65.5026 9.3992 65.775 10.1225L65.8009 10.1912L65.8108 10.2639C66.5371 15.5888 68.0819 27.5916 68.4323 32.8897C68.5197 34.2109 68.5172 35.1008 68.4355 35.648C68.3991 35.8924 68.3307 36.2033 68.1409 36.4286C68.0261 36.5649 67.8418 36.6979 67.5907 36.7173C67.3569 36.7354 67.1727 36.6458 67.0613 36.5714C66.8554 36.4338 66.705 36.2183 66.6044 36.0553C66.4907 35.8713 66.3809 35.6527 66.2785 35.4251C66.0729 34.9683 65.8737 34.4232 65.7123 33.9273L65.7045 33.9031L65.6985 33.8783C64.7471 29.9297 62.6522 20.8068 61.9107 16C61.4531 13.034 60.8544 11.5247 60.1931 10.7291C59.5806 9.99218 58.8559 9.79863 57.7984 9.70719C56.5045 9.59532 55.5612 10.4697 55.1681 11.0539ZM53.9313 10.579C54.3671 9.79321 55.7623 8.22406 57.91 8.40976C59.08 8.51092 60.2451 8.75374 61.1957 9.89751C62.0977 10.9826 62.7356 12.7984 63.199 15.8024C63.9295 20.5375 66.0042 29.5814 66.9598 33.5493C67.0312 33.7677 67.1089 33.9916 67.1896 34.2083C67.1819 33.8647 67.1635 33.4564 67.1316 32.9748C66.7863 27.7536 65.2605 15.8799 64.5288 10.5094C64.2135 9.63648 63.9747 8.30558 64.337 7.09486C64.5277 6.45742 64.8883 5.8463 65.4934 5.374C66.0962 4.90352 66.898 4.60483 67.9163 4.51515C69.9769 4.3337 71.3324 5.10161 72.1348 6.20897C72.8841 7.24287 73.1053 8.50569 73.0908 9.38119L76.2487 27.7369L75.407 18.2426L74.2185 11.1722C74.0227 10.3104 73.9044 8.99331 74.2312 7.83729C74.3982 7.2465 74.692 6.6617 75.1877 6.21403C75.6927 5.75803 76.3602 5.48718 77.1889 5.45573C78.7965 5.3947 80.0375 6.09533 80.9128 6.9575C81.7778 7.80942 82.3143 8.84298 82.5508 9.55697L82.5705 9.61659L84.948 28.1668L85.6693 35.3423C85.709 35.2762 85.7494 35.1994 85.7896 35.1101C86.1025 34.415 86.3472 33.0805 86.1474 30.6938C86.0237 29.2159 85.7259 27.6203 85.3957 26.0144C85.3171 25.6324 85.2366 25.2491 85.1562 24.8669C84.9019 23.6568 84.6498 22.4577 84.4719 21.3487C84.2389 19.8971 84.1172 18.5157 84.3077 17.389C84.5027 16.2352 85.0498 15.2447 86.2164 14.8013C87.8714 14.1723 89.2409 14.6212 90.2318 15.4272C91.1893 16.206 91.798 17.313 92.0761 18.0974L92.0991 18.1621L93.4819 28.7063L93.4819 28.7492C93.4806 29.7797 93.5106 30.9969 93.5407 32.2195C93.5447 32.3819 93.5486 32.5443 93.5526 32.7065C93.5859 34.0814 93.6142 35.4357 93.5901 36.4733C93.5647 37.5692 93.7357 40.3876 93.9403 43.5218C93.973 44.023 94.0065 44.5313 94.0401 45.0406C94.2135 47.6727 94.3887 50.3309 94.4656 52.1565C95.1104 56.1388 96.244 65.4429 95.5862 70.8733C94.9382 76.2228 94.4707 79.3086 94.3158 80.1936L94.2592 80.517L93.9652 80.6636C93.1335 81.0784 90.9974 81.9758 89.0574 82.2442L88.6167 82.3052L54.7377 21.9106L53.836 10.7509L53.9313 10.579ZM76.3589 32.9496C76.3587 32.949 76.3609 32.9434 76.3658 32.9341C76.3615 32.9454 76.359 32.9501 76.3589 32.9496Z" fill="#002550"/>
<path d="M76.0863 39.6847C76.1961 39.8846 76.1228 40.1355 75.9226 40.2452C75.7225 40.3548 75.4712 40.2816 75.3614 40.0817C75.2516 39.8818 75.3249 39.6308 75.5251 39.5212C75.7252 39.4116 75.9765 39.4847 76.0863 39.6847Z" fill="#C4C4C4"/>
<path d="M76.2562 41.7105C76.366 41.9105 76.2927 42.1614 76.0925 42.2711C75.8924 42.3807 75.6411 42.3075 75.5313 42.1076C75.4215 41.9077 75.4948 41.6567 75.695 41.5471C75.8952 41.4374 76.1464 41.5106 76.2562 41.7105Z" fill="#C4C4C4"/>
<path d="M76.5248 43.9176C76.6346 44.1175 76.5613 44.3684 76.3611 44.4781C76.1609 44.5877 75.9096 44.5145 75.7999 44.3146C75.6901 44.1147 75.7634 43.8638 75.9635 43.7541C76.1637 43.6445 76.415 43.7177 76.5248 43.9176Z" fill="#C4C4C4"/>
<path d="M76.5951 45.7623C76.7049 45.9622 76.6316 46.2132 76.4314 46.3228C76.2312 46.4324 75.98 46.3593 75.8702 46.1593C75.7604 45.9594 75.8337 45.7085 76.0338 45.5988C76.234 45.4892 76.4853 45.5624 76.5951 45.7623Z" fill="#C4C4C4"/>
<path d="M74.4784 43.6256C74.5882 43.8255 74.5149 44.0764 74.3147 44.1861C74.1145 44.2957 73.8633 44.2225 73.7535 44.0226C73.6437 43.8227 73.717 43.5718 73.9171 43.4621C74.1173 43.3525 74.3686 43.4257 74.4784 43.6256Z" fill="#C4C4C4"/>
<path d="M74.5668 45.9322C74.6766 46.1321 74.6033 46.3831 74.4031 46.4927C74.2029 46.6024 73.9516 46.5292 73.8419 46.3293C73.7321 46.1294 73.8053 45.8784 74.0055 45.7688C74.2057 45.6591 74.457 45.7323 74.5668 45.9322Z" fill="#C4C4C4"/>
<path d="M78.3778 39.1358C78.4876 39.3358 78.4143 39.5867 78.2141 39.6963C78.014 39.806 77.7627 39.7328 77.6529 39.5329C77.5431 39.333 77.6164 39.082 77.8166 38.9724C78.0167 38.8627 78.268 38.9359 78.3778 39.1358Z" fill="#C4C4C4"/>
<path d="M78.4662 41.442C78.576 41.6419 78.5027 41.8929 78.3025 42.0025C78.1023 42.1121 77.851 42.039 77.7413 41.839C77.6315 41.6391 77.7048 41.3882 77.9049 41.2785C78.1051 41.1689 78.3564 41.2421 78.4662 41.442Z" fill="#C4C4C4"/>
<path d="M78.8343 43.8297C78.9441 44.0296 78.8709 44.2806 78.6707 44.3902C78.4705 44.4998 78.2192 44.4267 78.1094 44.2267C77.9996 44.0268 78.0729 43.7759 78.2731 43.6662C78.4733 43.5566 78.7246 43.6298 78.8343 43.8297Z" fill="#C4C4C4"/>
<path d="M78.9042 45.6749C79.014 45.8748 78.9407 46.1258 78.7405 46.2354C78.5403 46.3451 78.289 46.2719 78.1793 46.0719C78.0695 45.872 78.1427 45.6211 78.3429 45.5114C78.5431 45.4018 78.7944 45.475 78.9042 45.6749Z" fill="#C4C4C4"/>
<path d="M81.2137 45.587C81.3235 45.7869 81.2503 46.0379 81.0501 46.1475C80.8499 46.2572 80.5986 46.184 80.4888 45.9841C80.379 45.7841 80.4523 45.5332 80.6525 45.4235C80.8527 45.3139 81.104 45.3871 81.2137 45.587Z" fill="#C4C4C4"/>
<path d="M81.0443 43.5611C81.1541 43.761 81.0808 44.012 80.8806 44.1216C80.6805 44.2313 80.4292 44.1581 80.3194 43.9582C80.2096 43.7583 80.2829 43.5073 80.4831 43.3977C80.6832 43.288 80.9345 43.3612 81.0443 43.5611Z" fill="#C4C4C4"/>
<path d="M83.4237 45.3185C83.5335 45.5184 83.4602 45.7693 83.26 45.879C83.0598 45.9886 82.8086 45.9154 82.6988 45.7155C82.589 45.5156 82.6623 45.2646 82.8625 45.155C83.0626 45.0453 83.3139 45.1185 83.4237 45.3185Z" fill="#C4C4C4"/>
<path d="M85.6337 45.0494C85.7435 45.2493 85.6702 45.5003 85.47 45.6099C85.2698 45.7196 85.0185 45.6464 84.9087 45.4465C84.799 45.2465 84.8722 44.9956 85.0724 44.8859C85.2726 44.7763 85.5239 44.8495 85.6337 45.0494Z" fill="#C4C4C4"/>
<path d="M87.7435 44.6007C87.8533 44.8006 87.78 45.0515 87.5799 45.1612C87.3797 45.2708 87.1284 45.1977 87.0186 44.9977C86.9088 44.7978 86.9821 44.5469 87.1823 44.4372C87.3825 44.3276 87.6337 44.4008 87.7435 44.6007Z" fill="#C4C4C4"/>
<path d="M87.8549 42.6559C87.9646 42.8558 87.8914 43.1067 87.6912 43.2164C87.491 43.326 87.2397 43.2528 87.1299 43.0529C87.0202 42.853 87.0934 42.602 87.2936 42.4924C87.4938 42.3828 87.7451 42.4559 87.8549 42.6559Z" fill="#C4C4C4"/>
<path d="M90.2465 42.2877C90.3562 42.4876 90.283 42.7386 90.0828 42.8482C89.8826 42.9578 89.6313 42.8847 89.5215 42.6847C89.4118 42.4848 89.485 42.2339 89.6852 42.1242C89.8854 42.0146 90.1367 42.0878 90.2465 42.2877Z" fill="#C4C4C4"/>
<path d="M90.3339 44.5943C90.4436 44.7943 90.3704 45.0452 90.1702 45.1548C89.97 45.2645 89.7187 45.1913 89.6089 44.9914C89.4992 44.7915 89.5724 44.5405 89.7726 44.4309C89.9728 44.3212 90.2241 44.3944 90.3339 44.5943Z" fill="#C4C4C4"/>
<path d="M88.1942 46.7081C88.304 46.908 88.2307 47.159 88.0305 47.2686C87.8304 47.3783 87.5791 47.3051 87.4693 47.1052C87.3595 46.9052 87.4328 46.6543 87.633 46.5446C87.8331 46.435 88.0844 46.5082 88.1942 46.7081Z" fill="#C4C4C4"/>
<path d="M88.3636 48.734C88.4734 48.9339 88.4002 49.1848 88.2 49.2945C87.9998 49.4041 87.7485 49.3309 87.6387 49.131C87.5289 48.9311 87.6022 48.6802 87.8024 48.5705C88.0026 48.4609 88.2539 48.5341 88.3636 48.734Z" fill="#C4C4C4"/>
<path d="M90.5736 48.4654C90.6834 48.6653 90.6101 48.9163 90.4099 49.0259C90.2098 49.1356 89.9585 49.0624 89.8487 48.8625C89.7389 48.6626 89.8122 48.4116 90.0124 48.302C90.2125 48.1923 90.4638 48.2655 90.5736 48.4654Z" fill="#C4C4C4"/>
<path d="M88.6327 50.941C88.7425 51.1409 88.6692 51.3919 88.469 51.5015C88.2688 51.6112 88.0176 51.538 87.9078 51.3381C87.798 51.1381 87.8713 50.8872 88.0714 50.7776C88.2716 50.6679 88.5229 50.7411 88.6327 50.941Z" fill="#C4C4C4"/>
<path d="M91.1234 50.754C91.2332 50.9539 91.1599 51.2049 90.9597 51.3145C90.7596 51.4242 90.5083 51.351 90.3985 51.151C90.2887 50.9511 90.362 50.7002 90.5622 50.5905C90.7623 50.4809 91.0136 50.5541 91.1234 50.754Z" fill="#C4C4C4"/>
<path d="M88.9017 53.1476C89.0115 53.3475 88.9382 53.5984 88.7381 53.7081C88.5379 53.8177 88.2866 53.7445 88.1768 53.5446C88.067 53.3447 88.1403 53.0937 88.3405 52.9841C88.5407 52.8745 88.7919 52.9476 88.9017 53.1476Z" fill="#C4C4C4"/>
<path d="M91.2108 53.0602C91.3206 53.2601 91.2473 53.511 91.0471 53.6207C90.847 53.7303 90.5957 53.6571 90.4859 53.4572C90.3761 53.2573 90.4494 53.0063 90.6496 52.8967C90.8498 52.787 91.101 52.8602 91.2108 53.0602Z" fill="#C4C4C4"/>
<path d="M89.3519 55.2555C89.4617 55.4554 89.3884 55.7063 89.1883 55.816C88.9881 55.9256 88.7368 55.8524 88.627 55.6525C88.5172 55.4526 88.5905 55.2016 88.7907 55.092C88.9909 54.9824 89.2421 55.0555 89.3519 55.2555Z" fill="#C4C4C4"/>
<path d="M91.1996 55.1856C91.3094 55.3856 91.2361 55.6365 91.0359 55.7462C90.8357 55.8558 90.5844 55.7826 90.4747 55.5827C90.3649 55.3828 90.4382 55.1318 90.6383 55.0222C90.8385 54.9125 91.0898 54.9857 91.1996 55.1856Z" fill="#C4C4C4"/>
<path d="M89.7206 57.6436C89.8304 57.8436 89.7571 58.0945 89.5569 58.2042C89.3567 58.3138 89.1054 58.2406 88.9957 58.0407C88.8859 57.8408 88.9592 57.5898 89.1593 57.4802C89.3595 57.3705 89.6108 57.4437 89.7206 57.6436Z" fill="#C4C4C4"/>
<path d="M91.6498 57.2931C91.7596 57.493 91.6863 57.7439 91.4861 57.8536C91.2859 57.9632 91.0346 57.89 90.9249 57.6901C90.8151 57.4902 90.8884 57.2392 91.0885 57.1296C91.2887 57.02 91.54 57.0931 91.6498 57.2931Z" fill="#C4C4C4"/>
<path d="M91.7377 59.5997C91.8475 59.7996 91.7742 60.0506 91.574 60.1602C91.3738 60.2699 91.1225 60.1967 91.0127 59.9968C90.903 59.7968 90.9762 59.5459 91.1764 59.4362C91.3766 59.3266 91.6279 59.3998 91.7377 59.5997Z" fill="#C4C4C4"/>
<path d="M87.4862 40.2677C87.596 40.4676 87.5227 40.7185 87.3225 40.8282C87.1223 40.9378 86.8711 40.8646 86.7613 40.6647C86.6515 40.4648 86.7248 40.2139 86.925 40.1042C87.1251 39.9946 87.3764 40.0678 87.4862 40.2677Z" fill="#C4C4C4"/>
<path d="M85.6039 39.4156C85.7137 39.6155 85.6404 39.8665 85.4402 39.9761C85.24 40.0858 84.9887 40.0126 84.879 39.8127C84.7692 39.6128 84.8425 39.3618 85.0426 39.2522C85.2428 39.1425 85.4941 39.2157 85.6039 39.4156Z" fill="#C4C4C4"/>
<path d="M85.7035 46.8951C85.8133 47.095 85.74 47.346 85.5398 47.4556C85.3396 47.5653 85.0884 47.4921 84.9786 47.2922C84.8688 47.0922 84.9421 46.8413 85.1422 46.7317C85.3424 46.622 85.5937 46.6952 85.7035 46.8951Z" fill="#C4C4C4"/>
<path d="M81.4535 49.4581C81.5633 49.658 81.49 49.909 81.2898 50.0186C81.0896 50.1283 80.8384 50.0551 80.7286 49.8551C80.6188 49.6552 80.6921 49.4043 80.8922 49.2946C81.0924 49.185 81.3437 49.2582 81.4535 49.4581Z" fill="#C4C4C4"/>
<path d="M83.9442 49.2716C84.054 49.4715 83.9807 49.7224 83.7805 49.8321C83.5804 49.9417 83.3291 49.8685 83.2193 49.6686C83.1095 49.4687 83.1828 49.2178 83.383 49.1081C83.5832 48.9985 83.8344 49.0717 83.9442 49.2716Z" fill="#C4C4C4"/>
<path d="M81.8041 51.3849C81.9139 51.5848 81.8406 51.8357 81.6404 51.9454C81.4402 52.055 81.1889 51.9818 81.0792 51.7819C80.9694 51.582 81.0426 51.331 81.2428 51.2214C81.443 51.1118 81.6943 51.1849 81.8041 51.3849Z" fill="#C4C4C4"/>
<path d="M84.2133 51.4786C84.323 51.6785 84.2498 51.9295 84.0496 52.0391C83.8494 52.1488 83.5981 52.0756 83.4883 51.8757C83.3785 51.6757 83.4518 51.4248 83.652 51.3151C83.8522 51.2055 84.1035 51.2787 84.2133 51.4786Z" fill="#C4C4C4"/>
<path d="M81.7928 53.5103C81.9026 53.7103 81.8294 53.9612 81.6292 54.0709C81.429 54.1805 81.1777 54.1073 81.0679 53.9074C80.9581 53.7075 81.0314 53.4565 81.2316 53.3469C81.4318 53.2372 81.6831 53.3104 81.7928 53.5103Z" fill="#C4C4C4"/>
<path d="M84.2015 53.6036C84.3113 53.8035 84.238 54.0545 84.0379 54.1641C83.8377 54.2738 83.5864 54.2006 83.4766 54.0007C83.3668 53.8007 83.4401 53.5498 83.6403 53.4401C83.8405 53.3305 84.0918 53.4037 84.2015 53.6036Z" fill="#C4C4C4"/>
<path d="M82.243 55.6183C82.3528 55.8182 82.2795 56.0691 82.0794 56.1788C81.8792 56.2884 81.6279 56.2152 81.5181 56.0153C81.4083 55.8154 81.4816 55.5644 81.6818 55.4548C81.882 55.3452 82.1333 55.4183 82.243 55.6183Z" fill="#C4C4C4"/>
<path d="M84.6517 55.711C84.7615 55.9109 84.6882 56.1619 84.4881 56.2715C84.2879 56.3812 84.0366 56.308 83.9268 56.1081C83.817 55.9082 83.8903 55.6572 84.0905 55.5476C84.2907 55.4379 84.5419 55.5111 84.6517 55.711Z" fill="#C4C4C4"/>
<path d="M82.5121 57.8248C82.6219 58.0247 82.5486 58.2757 82.3484 58.3853C82.1482 58.495 81.897 58.4218 81.7872 58.2218C81.6774 58.0219 81.7507 57.771 81.9508 57.6613C82.151 57.5517 82.4023 57.6249 82.5121 57.8248Z" fill="#C4C4C4"/>
<path d="M84.64 57.837C84.7498 58.0369 84.6765 58.2879 84.4763 58.3975C84.2762 58.5072 84.0249 58.434 83.9151 58.2341C83.8053 58.0341 83.8786 57.7832 84.0788 57.6735C84.279 57.5639 84.5302 57.6371 84.64 57.837Z" fill="#C4C4C4"/>
<path d="M84.8099 59.8624C84.9197 60.0623 84.8464 60.3133 84.6463 60.4229C84.4461 60.5326 84.1948 60.4594 84.085 60.2594C83.9752 60.0595 84.0485 59.8086 84.2487 59.6989C84.4489 59.5893 84.7002 59.6625 84.8099 59.8624Z" fill="#C4C4C4"/>
<path d="M85.079 62.0694C85.1888 62.2693 85.1155 62.5203 84.9153 62.6299C84.7151 62.7396 84.4638 62.6664 84.3541 62.4665C84.2443 62.2666 84.3176 62.0156 84.5177 61.906C84.7179 61.7963 84.9692 61.8695 85.079 62.0694Z" fill="#C4C4C4"/>
<path d="M82.5004 59.9498C82.6102 60.1497 82.5369 60.4007 82.3367 60.5103C82.1365 60.62 81.8852 60.5468 81.7754 60.3469C81.6657 60.1469 81.7389 59.896 81.9391 59.7863C82.1393 59.6767 82.3906 59.7499 82.5004 59.9498Z" fill="#C4C4C4"/>
<path d="M72.8436 93.0202C81.0798 90.6752 88.6847 81.8719 91.4576 77.7633C87.8756 71.956 80.3374 59.7458 78.8407 57.3637C77.344 54.9816 72.8694 47.9209 70.8192 44.6883L64.4083 33.0142L58.6086 25.2433C57.2376 23.2475 53.8256 19.8818 51.1457 22.3855C47.7959 25.5151 57.2087 33.4261 58.6996 36.141C59.8923 38.3129 60.2568 41.4093 60.29 42.686L54.3996 34.9647L44.4313 22.1785C43.2406 20.8687 40.2084 18.6527 37.6057 20.2666C34.3523 22.2839 41.8183 30.084 44.5632 32.9361C46.7591 35.2177 50.3484 42.7555 51.8686 46.2391L40.5526 32.0721L34.4284 23.0663C33.5407 22.0222 31.0439 20.4233 28.1582 22.3805C25.2726 24.3377 30.2652 32.3702 33.1222 36.1419C37.015 40.798 44.6725 50.3924 44.1604 51.5204C43.6484 52.6484 38.161 46.6055 35.4814 43.443C33.6495 40.6794 29.6033 34.5848 28.0738 32.3148C26.162 29.4773 23.1044 30.5634 21.8358 31.2583C20.8209 31.8141 21.2825 34.5435 21.6401 35.8387L28.8461 48.9607L38.4841 61.5747C36.6951 60.7495 32.3548 58.9989 29.3053 58.5973C26.2559 58.1957 26.5284 60.9815 27.0459 62.4246C28.6887 63.0551 32.7958 66.4559 35.2192 69.3664C37.1579 71.6948 45.6755 76.7451 49.692 78.9792L67.0468 86.5425L72.8436 93.0202Z" fill="#EEEEEE"/>
<path fill-rule="evenodd" clip-rule="evenodd" d="M31.878 22.228C30.9591 21.9886 29.8076 22.0489 28.5241 22.9194C28.0936 23.2114 27.8657 23.7739 27.9629 24.7628C28.0594 25.7441 28.4678 26.9726 29.0792 28.3108C30.294 30.9699 32.2204 33.8717 33.632 35.7368C35.5826 38.0703 38.4722 41.6357 40.8146 44.7645C41.9864 46.3297 43.0302 47.7976 43.7516 48.9519C44.1107 49.5265 44.4019 50.0425 44.5885 50.4637C44.6811 50.6729 44.7581 50.8814 44.8002 51.0756C44.8369 51.245 44.875 51.5224 44.7536 51.7898C44.643 52.0335 44.4353 52.2161 44.1635 52.2828C43.9308 52.3399 43.7122 52.2971 43.5568 52.2488C43.2452 52.152 42.9066 51.9421 42.5812 51.7053C41.91 51.2168 41.063 50.4385 40.1732 49.5516C38.3843 47.7685 36.3294 45.4519 34.9837 43.8636L34.9589 43.8344L34.9377 43.8024C33.1052 41.0381 29.0606 34.9459 27.5328 32.6784C26.7122 31.4604 25.6856 31.1101 24.7157 31.1132C23.7042 31.1164 22.7328 31.5096 22.149 31.8294C22.1203 31.8451 22.0295 31.9175 21.9564 32.1934C21.8858 32.4601 21.8587 32.822 21.8742 33.2481C21.9038 34.0633 22.0833 34.9767 22.2484 35.5937L29.3934 48.6049L39.0017 61.1799L38.2108 62.166C36.4296 61.3444 32.1653 59.6308 29.2202 59.243C28.5475 59.1544 28.1502 59.254 27.918 59.3875C27.6963 59.5149 27.549 59.717 27.4619 60.0069C27.2964 60.5577 27.3871 61.3137 27.5738 61.9442C28.0045 62.1485 28.51 62.4598 29.046 62.831C29.7205 63.2983 30.4801 63.8866 31.2593 64.5429C32.8153 65.8533 34.4773 67.4581 35.7198 68.9503C36.1495 69.4664 36.9885 70.1787 38.12 71.0128C39.2376 71.8365 40.5961 72.7472 42.0265 73.6595C44.8736 75.4754 47.98 77.2815 49.9808 78.3951L67.4373 86.0027L73.0532 92.2783C76.8935 91.0846 80.619 88.454 83.7579 85.5735C86.8164 82.7669 89.2715 79.766 90.68 77.7443C87.0167 71.8055 79.7529 60.0407 78.2884 57.7097C76.7925 55.3291 72.3188 48.2698 70.2683 45.0367L70.2573 45.0194L63.8584 33.367L58.0781 25.6222L58.0709 25.6116C57.4169 24.6596 56.2878 23.404 55.0439 22.6922C54.4266 22.3389 53.8205 22.1421 53.2544 22.1464C52.707 22.1505 52.1465 22.342 51.5906 22.8613C51.0272 23.3877 50.9221 24.1438 51.317 25.2561C51.7147 26.3762 52.5684 27.6747 53.6202 29.0179C54.5419 30.1949 55.5803 31.3628 56.5305 32.4316C56.6576 32.5746 56.7831 32.7157 56.9065 32.8549C57.9248 34.003 58.8541 35.0699 59.2705 35.8282C60.5371 38.1347 60.9069 41.3539 60.9411 42.6696L60.9934 44.6826L53.8851 35.3647L53.8809 35.3593L43.9324 22.5985C43.382 21.9982 42.4096 21.1931 41.296 20.7268C40.1795 20.2593 39.0095 20.1625 37.9493 20.82C37.6851 20.9838 37.5509 21.1849 37.4904 21.4298C37.4244 21.6967 37.437 22.0585 37.5633 22.5275C37.8179 23.4729 38.4769 24.6498 39.3676 25.9138C41.1374 28.4255 43.6553 31.0542 45.0325 32.4851C46.2056 33.704 47.6916 36.2437 49.0466 38.8358C50.4168 41.457 51.7007 44.2265 52.4656 45.9793L51.3588 46.6452L40.0273 32.4586L33.9097 23.4626C33.5326 23.03 32.8074 22.4703 31.878 22.228ZM32.2063 20.9679C33.4505 21.2922 34.4075 22.0368 34.9246 22.645L34.9473 22.6717L41.0772 31.6858L48.9742 41.5725C48.6253 40.8655 48.2614 40.1461 47.8912 39.4381C46.5226 36.82 45.1159 34.4501 44.0931 33.3874C42.7254 31.9662 40.1379 29.2688 38.3018 26.663C37.3896 25.3684 36.6206 24.0387 36.3045 22.8651C36.1455 22.2746 36.0872 21.6737 36.2249 21.1168C36.368 20.5378 36.7122 20.0539 37.2614 19.7134C38.8038 18.7569 40.4513 18.9613 41.7992 19.5258C43.139 20.0868 44.2699 21.0333 44.9132 21.741L44.9298 21.7592L54.9154 34.5676L59.3954 40.4402C59.1737 39.146 58.7797 37.6411 58.1278 36.4541C57.7988 35.8549 56.9925 34.9149 55.9312 33.7183C55.8091 33.5806 55.6843 33.4403 55.5574 33.2975C54.6099 32.232 53.5425 31.0315 52.5938 29.8199C51.5248 28.4548 50.5602 27.0191 50.0885 25.6908C49.6141 24.3547 49.5885 22.9483 50.7 21.9099C51.484 21.1774 52.355 20.8508 53.2439 20.8441C54.1142 20.8376 54.9492 21.1375 55.6913 21.5622C57.1611 22.4034 58.4199 23.8216 59.1381 24.8644L64.9575 32.6617L71.3802 44.3575C73.4351 47.5974 77.8973 54.6385 79.3922 57.0178C80.8908 59.4029 88.4311 71.6165 92.012 77.4221L92.2326 77.7797L91.9977 78.1277C90.5844 80.2217 87.957 83.4889 84.64 86.5329C81.33 89.5703 77.2811 92.434 73.0222 93.6466L72.6297 93.7584L66.6556 87.0825L49.4024 79.5635L49.3748 79.5482C47.3581 78.4264 44.2129 76.5986 41.3256 74.757C39.8822 73.8365 38.4968 72.9084 37.3465 72.0605C36.2102 71.223 35.2575 70.4308 34.7179 69.7828C33.5369 68.3645 31.9337 66.8136 30.4196 65.5384C29.6637 64.9018 28.937 64.3398 28.3037 63.9011C27.6597 63.455 27.1472 63.1612 26.8121 63.0325L26.5328 62.9253L26.4319 62.644C26.1554 61.8727 25.9058 60.6556 26.2134 59.6318C26.3747 59.095 26.6986 58.5857 27.2673 58.2587C27.8255 57.9377 28.5376 57.8397 29.3897 57.9519C31.5753 58.2397 34.3673 59.1866 36.4735 60.0167L28.2979 49.3167L21.0317 36.085L21.0114 36.0116C20.824 35.3329 20.6072 34.2744 20.5715 33.2946C20.5538 32.807 20.5792 32.3014 20.6963 31.8595C20.8109 31.4269 21.043 30.9496 21.5218 30.6874C22.2066 30.3123 23.3983 29.8151 24.7107 29.8109C26.0647 29.8066 27.5228 30.332 28.614 31.9516C30.1393 34.2153 34.1618 40.2742 36.0031 43.0518C37.3372 44.625 39.3516 46.8937 41.0935 48.6299C41.8816 49.4155 42.5955 50.0733 43.1564 50.5084C43.0197 50.2559 42.8489 49.9658 42.646 49.6411C41.954 48.5337 40.9361 47.1005 39.7709 45.5441C37.4434 42.4351 34.5638 38.8822 32.6217 36.5592L32.6116 36.5472L32.6022 36.5347C31.1576 34.6278 29.1651 31.6344 27.8934 28.8509C27.2602 27.4649 26.783 26.0826 26.6657 24.8894C26.5491 23.7039 26.7793 22.5284 27.7915 21.8418C29.3937 20.7551 30.9334 20.6362 32.2063 20.9679ZM43.5333 51.3961C43.5332 51.396 43.5328 51.3929 43.5328 51.3872C43.5335 51.3934 43.5335 51.3963 43.5333 51.3961ZM43.9581 51.0094C43.9612 51.0099 43.9629 51.0103 43.963 51.0104C43.9632 51.0105 43.9616 51.0103 43.9581 51.0094Z" fill="#8C8C8C"/>
<mask id="mask0_5596_109300" style="mask-type:alpha" maskUnits="userSpaceOnUse" x="21" y="19" width="71" height="74">
<path d="M72.8772 92.6517C81.0632 90.3263 88.3051 81.7698 91.0573 77.6823C87.4892 71.8959 79.9802 59.7299 78.4894 57.3563C76.9985 54.9828 72.5415 47.9475 70.4994 44.7266L64.1119 33.0956L58.3366 25.3516C56.9711 23.3628 53.5749 20.0078 50.9134 22.4976C47.5865 25.6097 56.9542 33.4974 58.4397 36.2023C59.628 38.3662 59.994 41.4496 60.0285 42.7208L54.1631 35.026L44.2374 22.2836C43.052 20.9782 40.0347 18.7682 37.4489 20.3721C34.2166 22.377 41.6486 30.152 44.381 32.9949C46.5669 35.2692 50.1443 42.7784 51.6597 46.2488L40.3925 32.13L34.2931 23.156C33.4093 22.1154 30.925 20.5206 28.0583 22.4659C25.1915 24.4113 30.1647 32.4149 33.0096 36.1736C36.8854 40.8141 44.51 50.3757 44.0021 51.4983C43.4943 52.6208 38.0316 46.5977 35.3637 43.4458C33.5391 40.6921 29.5091 34.6192 27.9858 32.3572C26.0817 29.5298 23.0431 30.6077 21.7826 31.298C20.7742 31.8503 21.2362 34.5684 21.5933 35.8584L28.773 48.9319L38.3701 61.5025C36.5905 60.6788 32.2731 58.9308 29.2408 58.5274C26.2084 58.124 26.4826 60.898 26.9988 62.3355C28.6329 62.9652 32.7203 66.356 35.1331 69.2567C37.0633 71.5772 45.5377 76.6155 49.5336 78.8446L66.7499 86.0013L72.8772 92.6517Z" fill="#C4C4C4"/>
</mask>
<g mask="url(#mask0_5596_109300)">
<path d="M64.3705 67.0036C64.3944 66.862 64.4765 66.7606 64.5527 66.6561C64.8585 66.2376 65.1714 65.8208 65.5393 65.4583C66.0285 64.9762 66.5422 64.516 67.0737 64.0808C67.4733 63.7536 67.9231 63.4891 68.3711 63.2282C68.3969 63.2131 68.4219 63.1966 68.4485 63.1827C68.6719 63.0643 68.7433 62.9965 68.9286 63.2837C69.1873 63.6841 69.5002 64.045 69.8231 64.3969C69.9299 64.5133 70.0165 64.6479 70.1149 64.7724C70.1764 64.8501 70.2315 64.9381 70.3087 64.997C70.5237 65.1616 70.6993 65.3642 70.8791 65.563C71.2215 65.941 71.6494 66.1557 72.1531 66.2082C72.4304 66.2373 72.709 66.2075 72.9843 66.1502C73.5177 66.0394 74.0151 65.8311 74.4765 65.5514C74.8671 65.3148 75.2307 65.0392 75.5159 64.6648C75.9121 64.1447 76.0055 63.5873 75.8005 62.9784C75.6469 62.5217 75.3885 62.1243 75.0969 61.7428C74.8372 61.403 74.5715 61.0699 74.276 60.761C74.1595 60.6392 74.0312 60.5289 73.9138 60.4083C73.7826 60.2733 73.653 60.1361 73.5314 59.9925C73.4696 59.9194 73.4898 59.8427 73.5665 59.7866C73.5985 59.7631 73.6332 59.7431 73.6687 59.7249C74.0236 59.5432 74.3769 59.359 74.7342 59.1823C75.0737 59.0145 75.4125 58.8441 75.7604 58.6955C76.1634 58.5235 76.5712 58.3604 76.9855 58.2184C77.4752 58.0507 77.9742 57.9098 78.4693 57.7574C78.5074 57.7456 78.5455 57.7338 78.5836 57.7216C78.7186 57.6781 78.8325 57.7049 78.9408 57.8015C79.2152 58.0463 79.4783 58.3005 79.7266 58.5727C80.0151 58.8891 80.2917 59.216 80.5223 59.5739C80.9213 60.1937 81.2697 60.8408 81.4247 61.573C81.5272 62.056 81.5442 62.5384 81.4198 63.0211C81.3999 63.0979 81.3865 63.1764 81.3738 63.2548C81.3707 63.2724 81.3823 63.2924 81.3916 63.3269C81.4924 63.3991 81.6221 63.4072 81.7489 63.4211C82.4071 63.4932 83.0321 63.6756 83.6406 63.9361C84.5615 64.3304 85.3963 64.8669 86.2086 65.4408C86.7358 65.8136 87.2522 66.2017 87.7673 66.5909C87.9728 66.7462 88.1615 66.9237 88.3583 67.0904C88.4493 67.1673 88.5428 67.2412 88.6336 67.3183C89.0198 67.6458 89.3778 68.0031 89.746 68.3504C90.5645 69.1231 91.2689 69.9983 92.0309 70.8214C92.138 70.9372 92.2243 71.0724 92.3218 71.1972C92.395 71.291 92.4698 71.384 92.5468 71.4748C92.7135 71.6716 92.8974 71.8543 93.0271 72.0812C93.0611 72.1408 93.1134 72.19 93.1568 72.2444C93.405 72.554 93.662 72.8569 93.8994 73.1746C94.3274 73.7475 94.7158 74.3463 95.0877 74.9579C95.4876 75.6157 95.783 76.3193 96.0675 77.0286C96.2301 77.434 96.3729 77.8474 96.5109 78.2621C96.6935 78.8113 96.7829 79.3809 96.8458 79.9554C96.9265 80.69 96.9154 81.4251 96.8452 82.1589C96.7815 82.8243 96.6223 83.4718 96.3993 84.1028C96.0448 85.1047 95.5436 86.0308 94.9349 86.9C94.592 87.3899 94.2208 87.8578 93.8172 88.3C93.4686 88.682 93.1241 89.0683 92.7758 89.4508C92.7087 89.5242 92.6336 89.5905 92.5595 89.6571C91.143 90.9295 89.7267 92.2026 88.3081 93.4726C88.1826 93.5849 88.0405 93.6792 87.9059 93.7813C87.6758 93.9558 87.4466 94.1312 87.215 94.3036C86.2848 94.9955 85.3072 95.611 84.2428 96.0752C83.1286 96.5609 81.9689 96.8723 80.7485 96.9281C80.1896 96.9537 79.6358 96.9144 79.081 96.8485C78.3759 96.7645 77.6895 96.606 77.0193 96.3797C76.7562 96.291 76.5007 96.1766 76.2481 96.0605C75.3614 95.6528 74.4986 95.2011 73.6986 94.6398C73.2189 94.3033 72.7441 93.9588 72.3222 93.5487C72.2726 93.5003 72.2137 93.4618 72.1603 93.4172C71.9543 93.2456 71.7526 93.0713 71.5641 92.8788C71.2174 92.5247 70.8508 92.1904 70.4933 91.8466C70.4288 91.7848 70.3701 91.7169 70.3058 91.6548C70.1846 91.5377 70.0605 91.4235 69.9389 91.3068C69.8673 91.238 69.7946 91.1698 69.7284 91.0963C69.0495 90.3437 68.366 89.5952 67.6966 88.8344C67.4548 88.5595 67.2467 88.2552 67.0262 87.962C66.8713 87.756 66.7251 87.5431 66.5688 87.3382C66.2612 86.9349 65.9973 86.5023 65.7311 86.0722C65.1821 85.1853 64.6617 84.2811 64.2055 83.3425C63.7324 82.3698 63.4049 81.3529 63.3369 80.264C63.3264 80.0959 63.3375 79.9264 63.3337 79.7576C63.3301 79.6062 63.2812 79.5643 63.1287 79.5751C63.0195 79.583 62.9105 79.5943 62.8018 79.6054C62.1764 79.6698 61.595 79.5051 61.0376 79.2517C60.4266 78.9737 59.8938 78.5799 59.3987 78.1262C59.1267 77.8768 58.8661 77.6196 58.6284 77.3399C58.4164 77.0907 58.2229 76.8261 58.0196 76.5695C57.9191 76.4427 57.9405 76.3109 57.9982 76.1761C58.1158 75.9017 58.2312 75.6262 58.352 75.3531C58.4645 75.0982 58.5855 74.8468 58.6985 74.5923C59.0063 73.8985 59.3916 73.2479 59.8097 72.6152C60.0344 72.2748 60.2504 71.9282 60.4767 71.5886C60.646 71.3345 60.69 71.3334 60.8967 71.5589C61.0642 71.7418 61.2183 71.9352 61.368 72.1341C61.5583 72.3871 61.7768 72.6217 62.0013 72.8456C62.2326 73.0766 62.4839 73.2881 62.7305 73.5034C63.017 73.7537 63.3362 73.9499 63.697 74.0811C64.1204 74.2349 64.5342 74.2291 64.9456 74.0428C65.3611 73.8548 65.7114 73.5854 66.0017 73.231C66.403 72.7412 66.7412 72.2175 66.9458 71.6151C67.0452 71.3218 67.1187 71.0239 67.1184 70.7112C67.118 70.2664 66.9789 69.8705 66.7052 69.5236C66.4471 69.1968 66.1854 68.8725 65.9187 68.5527C65.8367 68.4544 65.7334 68.3741 65.6389 68.2862C65.6097 68.2592 65.5763 68.2367 65.5484 68.2089C65.1621 67.8237 64.7766 67.4375 64.3912 67.0516C64.3841 67.0451 64.3828 67.0338 64.3705 67.0036ZM87.8274 88.0571C88.5076 87.405 89.5995 86.561 90.5368 85.5498C90.7329 85.3381 90.9422 85.1369 91.1213 84.9116C91.5306 84.3966 91.9173 83.8646 92.2194 83.2767C92.4773 82.775 92.6476 82.2503 92.6904 81.6854C92.7324 81.1296 92.6396 80.5951 92.4543 80.0751C92.2643 79.5409 92.0371 79.0226 91.7651 78.5243C91.3793 77.8174 90.951 77.1378 90.4676 76.4933C90.2951 76.2632 90.1236 76.0321 89.9493 75.8032C89.7031 75.4798 89.4708 75.1439 89.2042 74.838C88.5776 74.1189 87.94 73.4094 87.2958 72.7056C86.6459 71.9955 86.0373 71.2462 85.3201 70.5981C85.0699 70.372 84.8427 70.1201 84.5877 69.9C84.1597 69.5302 83.7297 69.1635 83.2702 68.8301C82.673 68.3971 82.0616 67.9934 81.3855 67.6922C80.9573 67.5014 80.5211 67.3365 80.0554 67.2591C79.558 67.1765 79.066 67.1956 78.5749 67.3157C77.9864 67.4596 77.4563 67.734 76.937 68.0329C76.5396 68.2616 76.1619 68.5215 75.7989 68.8018C75.4208 69.0936 75.0271 69.3675 74.6674 69.6805C73.8627 70.3807 73.0693 71.094 72.2823 71.814C71.4886 72.5399 70.6573 73.2244 69.9118 74.0044C69.6025 74.3283 69.2925 74.6504 68.992 74.9827C68.5756 75.4433 68.2168 75.9437 67.8953 76.4721C67.3275 77.4047 67.1956 78.403 67.4416 79.4571C67.6077 80.1686 67.8861 80.8362 68.2236 81.481C68.4817 81.9741 68.7658 82.451 69.0861 82.907C69.4112 83.3695 69.7156 83.847 70.0912 84.2727C70.1305 84.3171 70.1633 84.3674 70.2 84.4145C70.328 84.5789 70.4468 84.7511 70.5854 84.9059C71.6399 86.0825 72.6978 87.2556 73.7562 88.4288C73.8627 88.5467 73.9759 88.6586 74.089 88.7698C74.2163 88.8947 74.3474 89.0157 74.4768 89.1388C74.6346 89.2891 74.7905 89.4421 74.9502 89.5904C75.1028 89.7322 75.2583 89.8709 75.4148 90.0089C75.7272 90.2849 76.0277 90.5761 76.3572 90.8298C76.7738 91.1509 77.2079 91.451 77.647 91.7411C78.1455 92.0703 78.6743 92.3475 79.2378 92.5531C79.7307 92.7327 80.2403 92.7979 80.7647 92.7577C81.4016 92.7087 81.9935 92.5029 82.5582 92.2213C83.0574 91.9725 83.5437 91.6969 83.9911 91.3596C84.3486 91.0902 84.7185 90.8346 85.0548 90.5407C85.8806 89.8191 86.6898 89.0787 87.8274 88.0571Z" fill="#FFED00"/>
<path d="M74.6531 84.5934C72.8712 82.6144 71.0893 80.6353 69.3075 78.6561C69.2345 78.575 69.1635 78.4917 69.0967 78.4055C69.0489 78.3434 69.0521 78.2736 69.1028 78.2133C69.1476 78.1602 69.1973 78.1108 69.2491 78.0642C70.0866 77.311 70.9243 76.5575 71.7636 75.8062C72.0359 75.5624 72.0735 75.5643 72.3175 75.8349C73.389 77.0227 74.4589 78.2123 75.5295 79.4009C75.5959 79.4746 75.6601 79.5513 75.7324 79.619C75.9243 79.7996 76.1296 79.8389 76.3612 79.7117C76.5523 79.6071 76.7436 79.4905 76.906 79.3468C77.8536 78.507 78.7964 77.662 79.7314 76.8083C79.8982 76.656 80.026 76.4591 80.1636 76.2767C80.2886 76.1107 80.2642 75.9383 80.1476 75.7798C80.0714 75.6759 79.9835 75.5805 79.8971 75.4846C78.8537 74.3249 77.8096 73.1658 76.7662 72.006C76.6932 71.925 76.6195 71.8436 76.5547 71.756C76.4897 71.6677 76.4936 71.5929 76.5628 71.5115C76.6141 71.451 76.6736 71.3968 76.7328 71.3436C77.5558 70.6038 78.3788 69.8639 79.2027 69.1255C79.4833 68.874 79.5004 68.8746 79.7496 69.1509C80.7545 70.2651 81.758 71.3805 82.762 72.4956C85.335 75.3532 87.9083 78.2111 90.4809 81.0692C90.5605 81.1576 90.6376 81.2486 90.7101 81.3429C90.7577 81.4052 90.7523 81.4765 90.7005 81.5347C90.641 81.6014 90.5762 81.664 90.5096 81.7237C89.6944 82.457 88.8784 83.1899 88.0622 83.9221C87.7515 84.2006 87.7467 84.2006 87.4731 83.8973C86.2028 82.4873 84.933 81.0766 83.6629 79.6665C83.5831 79.5778 83.5053 79.487 83.4208 79.403C83.2123 79.1956 83.0667 79.1701 82.8038 79.2992C82.6968 79.3516 82.5885 79.408 82.4955 79.4811C82.1665 79.7389 81.8369 79.9968 81.5204 80.2698C81.1129 80.6214 80.7252 80.9963 80.3148 81.3441C79.9482 81.6545 79.642 82.0229 79.296 82.3524C79.1756 82.4673 79.0851 82.6167 78.9942 82.7584C78.8927 82.9165 78.9051 83.0837 79.0098 83.2357C79.0825 83.3415 79.1677 83.4397 79.2541 83.5356C80.5231 84.9467 81.7936 86.3569 83.0632 87.7674C83.1297 87.8412 83.1974 87.9146 83.2569 87.9937C83.3256 88.0851 83.3229 88.1528 83.2486 88.2344C83.1883 88.3006 83.1205 88.3598 83.0538 88.4198C82.253 89.1397 81.4519 89.8591 80.6508 90.5781C80.3155 90.8789 80.3144 90.879 80.0195 90.552C78.2301 88.5665 76.4416 86.5797 74.6531 84.5934Z" fill="#FFED00"/>
</g>
<path d="M43.6084 66.1841L38.3934 61.6243C36.9016 60.9111 33.0239 59.4661 29.5449 58.8191C26.6569 58.2821 26.5225 60.8277 27.1773 62.2348C28.5173 62.4426 34.1667 67.2353 36.0288 69.9823L40.6884 73.316L45.6607 76.3607C46.1742 76.0794 46.7557 75.4784 45.3011 74.2033C43.8465 72.9282 43.5665 68.3259 43.6084 66.1841Z" fill="#002550"/>
<path d="M27.0341 60.9007C29.3181 61.7686 34.1392 63.8367 35.1518 65.1655C36.1645 66.4943 37.1017 67.786 37.4437 68.2657L36.1692 70.0232C34.807 68.258 31.181 64.3739 27.1774 62.2348C27.0799 62.0572 26.7219 61.3203 26.8032 60.9095C26.8116 60.8672 26.8677 60.8879 26.9234 60.9049L27.0341 60.9007Z" fill="#EEEEEE"/>
</g>
<defs>
<clipPath id="clip0_5596_109300">
<rect width="255" height="96" fill="white"/>
</clipPath>
<clipPath id="clip1_5596_109300">
<rect width="33.5993" height="40.1564" fill="white" transform="translate(125.741 31.6968)"/>
</clipPath>
</defs>
</svg>
